<?xml version="1.0" encoding="UTF-8" standalone="no"?>
<svg
   xmlns:dc="http://purl.org/dc/elements/1.1/"
   xmlns:cc="http://creativecommons.org/ns#"
   xmlns:rdf="http://www.w3.org/1999/02/22-rdf-syntax-ns#"
   xmlns:svg="http://www.w3.org/2000/svg"
   xmlns="http://www.w3.org/2000/svg"
   xmlns:sodipodi="http://sodipodi.sourceforge.net/DTD/sodipodi-0.dtd"
   xmlns:inkscape="http://www.inkscape.org/namespaces/inkscape"
   width="800"
   height="800"
   viewBox="0 0 211.66666 211.66668"
   version="1.1"
   id="svg870"
   inkscape:version="1.0.2 (1.0.2+r75+1)"
   sodipodi:docname="hand1.svg">
  <defs
     id="defs864" />
  <sodipodi:namedview
     id="base"
     pagecolor="#ffffff"
     bordercolor="#666666"
     borderopacity="1.0"
     inkscape:pageopacity="0.0"
     inkscape:pageshadow="2"
     inkscape:zoom="0.35"
     inkscape:cx="467.01733"
     inkscape:cy="419.82509"
     inkscape:document-units="mm"
     inkscape:current-layer="layer1"
     inkscape:document-rotation="0"
     showgrid="false"
     fit-margin-top="0"
     fit-margin-left="0"
     fit-margin-right="0"
     fit-margin-bottom="0"
     inkscape:window-width="956"
     inkscape:window-height="1040"
     inkscape:window-x="960"
     inkscape:window-y="18"
     inkscape:window-maximized="1"
     units="px" />
  <metadata
     id="metadata867">
    <rdf:RDF>
      <cc:Work
         rdf:about="">
        <dc:format>image/svg+xml</dc:format>
        <dc:type
           rdf:resource="http://purl.org/dc/dcmitype/StillImage" />
        <dc:title></dc:title>
      </cc:Work>
    </rdf:RDF>
  </metadata>
  <g
     inkscape:label="Layer 1"
     inkscape:groupmode="layer"
     id="layer1"
     transform="translate(-100.05116,-37.087946)">
    <g
       id="g858"
       transform="translate(60.854168)">
      <path
         style="fill:#211e1e;fill-opacity:1;fill-rule:nonzero;stroke:none;stroke-width:0.352778"
         d="m 137.5976,87.821799 c -1.06798,2.826357 0.39274,5.197958 3.8778,6.304523 -1.09279,-2.287541 -1.18649,-5.044997 -3.8778,-6.304523 z m 34.43304,55.621761 c -1.00872,0.60082 -1.90721,1.2485 -2.89526,1.69361 -1.04869,0.47129 -2.15938,0.90399 -3.28386,1.0666 -0.96601,0.14055 -1.6068,0.37344 -1.55029,1.41937 0.0482,0.88057 -0.0841,1.7763 1.25677,2.10703 2.26824,0.55948 4.49378,-0.1695 6.28247,-2.39917 0.97703,-1.21956 1.079,-2.46669 0.19017,-3.88744 z m -8.59069,0.72071 c 3.08129,-0.0799 5.46806,-1.46486 7.56129,-3.48368 1.5503,-1.49655 1.6757,-2.84289 0.63941,-4.31464 -2.09186,1.37666 -4.0597,2.95865 -6.27283,4.03765 -1.81349,0.8847 -2.53696,1.89618 -1.92787,3.76067 z M 150.55254,94.975194 c 4.04454,-0.8847 5.58105,-2.372981 5.76433,-5.002276 0.0978,-1.412491 -0.21773,-2.804308 -1.69912,-3.034443 -1.16444,-0.180523 -2.57004,0.259073 -2.90077,1.794207 -0.42444,1.96784 -0.74414,3.96048 -1.16444,6.242512 z m 7.67291,40.019606 c -0.0386,2.43362 1.64814,3.87505 3.98253,3.77032 3.75102,-0.1695 7.4235,-3.68074 7.59161,-8.02708 0.11714,-3.0744 -0.95773,-4.5172 -3.97288,-3.95772 -1.72392,0.3197 -3.53604,1.42076 -4.79144,2.68442 -1.43867,1.44694 -3.17224,3.03995 -2.80982,5.53006 z m 12.69173,-23.01599 c -0.15709,-0.0524 -0.31281,-0.10473 -0.46853,-0.15847 0,-0.86128 0.11851,-1.7446 -0.0345,-2.57831 -0.14056,-0.76619 -0.44787,-1.98438 -0.90675,-2.09876 -0.70005,-0.17363 -1.73082,0.25081 -2.37712,0.74415 -1.28433,0.9784 -2.27927,2.35782 -3.61183,3.24665 -3.17638,2.11942 -4.58474,4.98712 -4.47863,8.76295 0.0427,1.48828 0.7028,2.49976 1.92374,3.0427 1.33119,0.59256 2.74919,0.30869 3.71519,-0.77996 1.54203,-1.73909 3.07578,-3.5264 4.31464,-5.48046 0.89159,-1.40836 1.29949,-3.12263 1.92374,-4.70049 z m -14.77945,4.99539 c 0.35415,-0.67111 0.72898,-1.1796 0.90537,-1.75011 0.68213,-2.209 1.51446,-4.28983 3.66007,-5.53696 0.33624,-0.19568 0.66146,-0.54708 0.81028,-0.90261 0.79789,-1.91272 2.57831,-2.68304 4.22782,-3.4451 1.83142,-0.84749 3.02204,-2.16627 3.75378,-3.92465 0.73036,-1.759757 1.418,-3.556719 1.89618,-5.395023 0.95222,-3.660069 1.48277,-7.424867 -0.41754,-10.908548 -1.14929,-2.108401 -2.61139,-4.153408 -4.32153,-5.829102 -4.13825,-4.050055 -8.5397,-7.806588 -14.61272,-8.648569 -0.97841,-0.136427 -1.99678,-0.111619 -2.93936,-0.370692 -2.42396,-0.664214 -4.81762,-0.773077 -7.27191,-0.154341 -1.52273,0.383096 -3.11161,0.507118 -4.63434,0.891593 -1.55305,0.389982 -3.11436,0.833713 -4.57646,1.475878 -1.91134,0.839226 -3.69452,1.967837 -5.59346,2.842891 -3.35277,1.546162 -5.58932,4.19475 -6.89432,7.477238 -0.87919,2.213127 -1.24575,4.679816 -1.53238,7.069335 -0.65182,5.450141 1.30362,10.040387 5.41569,13.54336 2.03949,1.73909 4.46622,3.06338 6.82956,4.37251 3.24252,1.79697 6.3748,3.91088 10.36697,3.84336 1.34773,-0.0221 2.1401,0.87643 2.12632,2.44739 -0.0427,5.23103 0.42443,10.42624 1.60128,15.53187 0.14745,0.63803 0.78411,1.59439 1.27607,1.64813 2.1208,0.23151 4.28569,0.34175 6.41063,0.17777 1.40973,-0.10749 2.96002,-0.47267 4.12033,-1.22783 1.57648,-1.02664 2.84979,-2.52457 4.22782,-3.84749 0.26183,-0.25218 0.40652,-0.62563 0.8475,-1.33118 -1.27607,0 -2.20486,-0.113 -3.09645,0.0193 -3.53329,0.52503 -7.05005,1.15755 -10.58472,1.6688 -0.65043,0.0937 -1.35736,-0.19568 -2.03811,-0.3073 0.46302,-0.74414 0.78272,-1.66054 1.42213,-2.19384 0.87919,-0.73036 1.96922,-1.24023 3.03031,-1.70188 0.45199,-0.19706 1.06246,-0.0331 1.5999,-0.0331 0.0413,0.20257 0.0813,0.40652 0.12264,0.60909 -0.52365,0.33624 -1.04731,0.67386 -1.57096,1.0101 0.0882,0.0937 0.17639,0.18742 0.26596,0.2825 2.11253,-0.33624 4.22507,-0.67248 6.50159,-1.03491 -0.38585,-1.01699 -1.017,-1.95268 -1.0418,-2.90352 -0.0386,-1.49655 -0.79237,-1.66605 -1.91134,-1.49104 -2.51492,0.39412 -5.01606,0.88057 -7.53787,1.21956 -0.71796,0.0965 -1.48828,-0.18465 -2.2338,-0.29214 0.3197,-0.62563 0.49747,-1.41111 0.98944,-1.8383 0.81028,-0.70418 1.82314,-1.17547 2.71473,-1.72255 1.38493,1.31878 3.59392,1.29811 4.83829,0.32384 -1.75011,-6.38445 -3.45612,-12.61043 -5.2145,-19.030711 -0.63389,0.126781 -1.60679,0.321084 -2.50389,0.500228 0.51676,2.616893 0.85025,5.100123 1.5186,7.486883 0.72071,2.57004 -0.062,5.45152 1.74459,7.81486 0.31282,0.40927 0.16123,1.5434 -0.20257,2.00504 -0.45475,0.5774 -1.32567,0.91364 -2.07946,1.0983 -0.16399,0.04 -0.75516,-0.9729 -0.86679,-1.55581 -0.25218,-1.29949 -0.24666,-2.64996 -0.48507,-3.95359 -0.72484,-3.95359 -1.58198,-7.88376 -2.24344,-11.848374 -0.21084,-1.267795 -0.62839,-1.846573 -1.91823,-2.253093 -3.49746,-1.099675 -7.12446,-4.247113 -6.56084,-7.813477 0.22737,-1.437294 1.5751,-3.384462 3.03582,-3.65318 1.51859,-0.279738 2.83462,0.421683 3.54982,1.737709 1.16169,2.134581 2.26825,4.324283 3.11437,6.59529 0.52365,1.404222 1.19889,2.036741 2.66513,1.83968 0.4327,-0.05788 0.87919,-0.0083 1.40422,-0.0083 0.0868,-1.506195 0.21359,-2.951755 0.24667,-4.400074 0.0744,-3.304536 3.35552,-6.625607 6.5884,-6.453353 1.50757,0.07992 2.65272,0.913638 3.39411,2.345422 1.12448,2.175923 0.40376,4.146514 -0.56224,6.049585 -0.9977,1.969219 -3.11713,2.426726 -4.92236,3.278353 -0.92741,0.436838 -2.04776,0.649058 -1.66191,2.163523 0.98254,3.872279 1.87138,7.769379 2.85943,11.640289 0.53605,2.09875 1.19751,4.1658 1.94855,6.751 z m 9.66693,129.61965 c -0.11989,-4.38906 -0.25493,-8.77811 -0.35415,-13.16854 -0.11989,-5.28753 -0.12954,-10.57782 -0.339,-15.86121 -0.15434,-3.89847 -0.59669,-7.78316 -0.82958,-11.67888 -0.14745,-2.48047 -0.0537,-4.97747 -0.23564,-7.45518 -0.20395,-2.78226 -0.71107,-5.54523 -0.87919,-8.32887 -0.2701,-4.46209 -0.4203,-8.93382 -0.52641,-13.4028 -0.0937,-3.89709 -0.0303,-7.79694 -0.0868,-11.69541 -0.0455,-3.05648 0.9164,-5.56589 3.29351,-7.6426 1.70326,-1.4869 3.08956,-3.34036 4.44004,-5.23103 -2.41845,0.65595 -4.51307,-0.17776 -6.58289,-0.75792 -1.50895,-0.42306 -2.28892,-2.09462 -2.13458,-3.89296 0.011,-0.11713 0.0689,-0.2384 0.0496,-0.34726 -0.37207,-2.08222 -0.73449,-4.16443 -1.15617,-6.23563 -0.0413,-0.20257 -0.44649,-0.35691 -0.70694,-0.48369 -2.93108,-1.41938 -4.67844,-3.53466 -4.1727,-7.00595 0.0303,-0.20119 -0.0882,-0.42443 -0.12678,-0.59255 -3.74275,1.40146 -7.56405,1.05144 -11.25857,0.65732 -1.78732,-0.19017 -2.12631,-2.61 -2.64859,-4.19612 -0.5209,-1.57786 -0.5581,-3.32108 -0.7717,-4.99539 -0.35553,-2.78915 -1.48415,-5.23241 -3.38998,-7.27053 -0.38722,-0.41617 -1.17546,-0.46026 -1.93614,-0.50574 0.95774,2.75608 0.0579,4.59576 -2.00504,6.124 -0.39963,0.29628 -0.54019,1.11621 -0.57327,1.70601 -0.28938,5.19521 0.95774,10.11067 2.5039,15.03026 0.51125,1.62609 0.17501,3.66559 -0.23703,5.40605 -1.24299,5.25721 -2.69957,10.46206 -4.09966,15.6807 -1.03766,3.86126 -2.36747,7.66327 -3.12677,11.5769 -1.52824,7.87961 -2.84151,15.80334 -4.07486,23.73532 -0.78961,5.0767 -1.4745,10.18646 -1.84932,15.30725 -0.44511,6.09782 -0.49059,12.22458 -0.74277,18.33756 -0.1626,3.95221 -0.33761,7.9058 -0.62563,11.85112 -0.051,0.70142 -0.67799,1.3615 -1.03904,2.0395 -0.26045,-0.062 -0.52089,-0.12402 -0.78134,-0.18603 -0.0799,-2.03675 -0.2136,-4.07211 -0.22876,-6.10885 -0.0372,-4.89617 -0.20257,-9.80061 0.0262,-14.68575 0.2508,-5.3399 0.85301,-10.66188 1.36426,-15.98662 0.4079,-4.24298 0.74138,-8.50388 1.40835,-12.70965 1.11621,-7.03488 2.2531,-14.07941 3.78961,-21.03024 1.61919,-7.32427 3.72621,-14.53968 5.60035,-21.80745 0.68212,-2.64859 1.28708,-5.31647 1.96508,-7.96506 0.61874,-2.42673 -0.27836,-4.62883 -1.03491,-6.81578 -1.94303,-5.62102 -1.91685,-11.28613 -0.80891,-17.05598 1.11897,-5.83186 6.00687,-5.28064 9.1047,-2.70922 0.17088,0.14194 0.32797,0.30041 0.69315,0.63665 0,-1.09692 0,-1.97059 0,-2.90628 -1.38079,-0.23151 -2.8608,-0.19706 -4.08726,-0.73725 -3.30315,-1.45521 -6.44784,-3.26733 -9.74824,-4.72943 -5.14835,-2.28065 -8.34678,-6.23838 -10.19335,-11.394997 -0.44235,-1.237481 -0.62838,-2.614139 -0.68213,-3.937056 -0.19292,-4.816242 0.15986,-9.599415 3.17363,-13.603993 2.31234,-3.071646 5.55073,-5.050511 8.89385,-7.000434 4.76388,-2.779504 9.97424,-3.892959 15.2039,-4.795572 2.81534,-0.486449 5.85529,0.246669 8.78638,0.520897 8.35642,0.779971 14.03394,6.144673 19.21123,11.89385 3.90122,4.332552 4.41937,9.786824 2.79742,15.381661 -0.46716,1.608169 -0.81305,3.268705 -1.46624,4.798334 -0.62976,1.47587 -1.58612,2.81257 -2.51216,4.40558 3.19567,1.35875 3.26044,4.22783 3.19154,7.12171 -0.0813,3.34863 -1.3119,6.22184 -3.63527,8.65683 -1.11897,1.17271 -2.11667,2.4598 -3.31694,3.86953 2.42535,0.35691 4.45658,1.05282 5.31234,3.28387 0.46027,1.20165 0.95774,2.63894 0.70004,3.80614 -0.33899,1.52824 0.17364,2.35645 1.12862,3.28938 1.94027,1.89342 2.00228,5.01744 0.18603,7.08311 1.48553,2.05052 2.02021,4.0225 0.93707,6.67384 -1.06109,2.59485 -2.00229,5.19658 -3.70417,7.43452 -0.78824,1.03628 -1.64813,2.11529 -2.7106,2.82635 -2.9738,1.99265 -3.14468,4.9761 -3.13504,8.04775 0.0138,4.03765 -0.0289,8.07943 0.17915,12.10882 0.29352,5.71197 0.81717,11.41153 1.19889,17.12074 0.20809,3.1185 0.31419,6.24527 0.49058,9.36515 0.36243,6.45887 0.84474,12.9136 1.07763,19.3766 0.17087,4.71978 -0.0276,9.45196 0.0372,14.17725 0.0303,2.25585 0.29627,4.51032 0.43546,6.76617 0.0165,0.26734 -0.1006,0.54432 -0.15572,0.81718 -0.82269,0 -1.64538,0 -2.46945,0"
         id="path8" />
      <path
         style="fill:#211e1e;fill-opacity:1;fill-rule:nonzero;stroke:none;stroke-width:0.352778"
         d="m 164.93099,37.222993 c -0.42168,2.991721 -0.71383,6.008246 -1.29398,8.96965 -0.89848,4.576466 -2.00505,9.11159 -2.99448,13.671518 -0.22186,1.01837 -0.24115,2.086349 -0.52228,3.085426 -0.14745,0.527791 -0.65732,0.953604 -1.00458,1.42627 -0.66698,-0.501604 -1.99403,-0.372072 -1.73909,-1.758375 0.34727,-1.881022 0.67662,-3.768937 1.10381,-5.632044 1.37253,-5.977929 2.74643,-11.955858 4.23885,-17.904848 0.18879,-0.755167 1.08589,-1.332565 1.65364,-1.992644 0.18604,0.04548 0.37207,0.09095 0.55811,0.135047"
         id="path14" />
      <path
         style="fill:#211e1e;fill-opacity:1;fill-rule:nonzero;stroke:none;stroke-width:0.352778"
         d="m 143.65132,64.028593 c -3.01653,-0.06477 -2.5039,-2.075328 -2.5604,-3.658694 -0.13918,-3.943942 -0.22048,-7.889268 -0.30317,-11.835969 -0.0331,-1.581986 -0.0648,-3.170865 0.0262,-4.74872 0.0262,-0.467152 0.4768,-0.908125 0.73312,-1.360121 0.44924,0.374826 1.19476,0.684883 1.29536,1.138259 0.33073,1.488281 0.53192,3.024794 0.59531,4.551658 0.19017,4.624698 0.30455,9.252148 0.41754,13.88098 0.0165,0.671103 -0.13091,1.347721 -0.20394,2.032607"
         id="path16" />
      <path
         style="fill:#211e1e;fill-opacity:1;fill-rule:nonzero;stroke:none;stroke-width:0.352778"
         d="m 124.05562,43.205056 c 1.1231,1.909963 2.46668,3.724839 3.32244,5.747798 1.85485,4.389052 3.4644,8.882834 5.16627,13.338033 0.54295,1.420756 0.0882,1.76802 -2.33026,1.707388 -2.04226,-6.866763 -5.43223,-13.333899 -7.09552,-20.367406 0.31281,-0.141936 0.62563,-0.283873 0.93707,-0.425813"
         id="path18" />
      <path
         style="fill:#211e1e;fill-opacity:1;fill-rule:nonzero;stroke:none;stroke-width:0.352778"
         d="m 168.62275,61.236685 c 1.74046,-3.600813 3.19567,-7.413844 6.42993,-10.109288 0.17776,0.06477 0.35553,0.129536 0.5333,0.194306 -0.56775,1.679826 -1.06109,3.389972 -1.72255,5.031215 -0.62839,1.562696 -1.40422,3.07027 -2.17041,4.57371 -0.87092,1.704633 -1.45521,1.768024 -3.07027,0.310057"
         id="path20" />
    </g>
  </g>
</svg>
