<?xml version="1.0" encoding="UTF-8" standalone="no"?>
<svg
   xmlns:dc="http://purl.org/dc/elements/1.1/"
   xmlns:cc="http://creativecommons.org/ns#"
   xmlns:rdf="http://www.w3.org/1999/02/22-rdf-syntax-ns#"
   xmlns:svg="http://www.w3.org/2000/svg"
   xmlns="http://www.w3.org/2000/svg"
   xmlns:sodipodi="http://sodipodi.sourceforge.net/DTD/sodipodi-0.dtd"
   xmlns:inkscape="http://www.inkscape.org/namespaces/inkscape"
   width="800mm"
   height="800mm"
   viewBox="0 0 799.99997 799.99998"
   version="1.1"
   id="svg1508"
   inkscape:version="1.0.2 (1.0.2+r75+1)"
   sodipodi:docname="hand3.svg">
  <defs
     id="defs1502" />
  <sodipodi:namedview
     id="base"
     pagecolor="#ffffff"
     bordercolor="#666666"
     borderopacity="1.0"
     inkscape:pageopacity="0.0"
     inkscape:pageshadow="2"
     inkscape:zoom="0.18240061"
     inkscape:cx="747.51293"
     inkscape:cy="659.18911"
     inkscape:document-units="mm"
     inkscape:current-layer="layer1"
     inkscape:document-rotation="0"
     showgrid="false"
     fit-margin-top="0"
     fit-margin-left="0"
     fit-margin-right="0"
     fit-margin-bottom="0"
     inkscape:window-width="636"
     inkscape:window-height="1040"
     inkscape:window-x="640"
     inkscape:window-y="18"
     inkscape:window-maximized="1" />
  <metadata
     id="metadata1505">
    <rdf:RDF>
      <cc:Work
         rdf:about="">
        <dc:format>image/svg+xml</dc:format>
        <dc:type
           rdf:resource="http://purl.org/dc/dcmitype/StillImage" />
        <dc:title></dc:title>
      </cc:Work>
    </rdf:RDF>
  </metadata>
  <g
     inkscape:label="Layer 1"
     inkscape:groupmode="layer"
     id="layer1"
     transform="translate(-48.949643,-16.11361)">
    <path
       style="fill:#211e1e;fill-opacity:1;fill-rule:nonzero;stroke:none;stroke-width:1.34456"
       d="m 327.15026,377.38567 c 1.26578,-5.0736 2.62084,-10.00016 3.66604,-14.98977 0.28886,-1.39183 0.13122,-3.29838 -0.63552,-4.41183 -1.91179,-2.77841 -4.20702,-5.31525 -6.52323,-7.78375 -0.81409,-0.87189 -2.10088,-1.53891 -3.26687,-1.72274 -0.40442,-0.0682 -1.64395,1.6387 -1.55991,2.44228 0.96116,9.69031 1.75949,19.48039 8.31949,26.46581 z M 616.6514,352.43774 c -3.13553,2.72588 -5.78267,4.72696 -8.06209,7.09046 -2.42128,2.51054 -4.49588,5.35725 -6.63878,7.96235 6.9749,8.97076 6.66504,16.27656 -0.32549,24.99519 -2.63136,3.28787 -4.71648,7.00643 -7.04846,10.52542 12.05907,-4.28054 23.81871,-32.99429 22.07497,-50.57342 z M 640.02894,149.2512 c 0.0114,0.042 -0.004,-1.31304 -0.5672,-2.37924 -4.8163,-9.11782 -9.30692,-18.45098 -14.72195,-27.20638 -6.77008,-10.95084 -16.0507,-19.85332 -25.72526,-28.256836 -2.1639,-1.875033 -4.95282,-4.002171 -7.1272,0.105003 -6.72282,12.705053 -13.45616,25.404883 -19.82707,38.283263 -0.69329,1.40234 0.38342,4.51164 1.65969,5.88247 3.08305,3.32464 7.85205,5.46754 10.02121,9.20185 7.7417,13.33007 27.70534,15.47297 38.95029,10.92982 5.34147,-2.15339 10.77224,-4.0862 17.33749,-6.56 z M 453.60744,39.044334 c -7.5264,1.549394 -16.42888,4.653448 -25.42589,4.958075 -17.13792,0.577745 -30.29468,10.504395 -42.19092,19.753508 -19.53817,15.194619 -37.1593,33.167631 -53.90856,51.497813 -9.9004,10.83528 -16.67573,24.54878 -24.53828,37.16455 -0.96115,1.54415 -0.88237,5.2417 0.25738,6.34991 9.35943,9.06004 11.32374,20.25772 10.89306,32.58463 -0.44643,12.79961 -2.86244,26.29251 9.20186,35.99332 0.45169,0.36238 0.3729,1.32355 0.77207,1.82251 5.53582,6.92766 11.11366,13.81854 17.7997,22.10651 1.71222,-4.31206 2.71539,-6.24486 3.25637,-8.29848 3.71855,-14.11266 7.12197,-28.31985 11.05063,-42.37473 6.32889,-22.61596 18.37218,-39.43351 43.97139,-42.20667 6.98542,-0.75632 8.67138,-3.98642 7.30582,-10.89306 -0.67754,-3.40868 -1.2973,-7.185 -0.53573,-10.46763 2.33197,-10.11572 7.16925,-18.90792 14.76918,-26.30301 9.90564,-9.63778 22.86807,-8.09888 34.79581,-10.43611 4.13348,-0.814093 8.42978,-1.066199 12.38993,-2.363498 7.75749,-2.536814 12.49497,-8.492798 11.44452,-14.412032 -0.95063,-5.341479 -2.41594,-10.640949 -4.18598,-15.777597 -1.18175,-3.413926 -4.19653,-6.349911 -4.81104,-9.779597 -1.33931,-7.473873 -6.72804,-10.667208 -12.46344,-13.802768 -2.97799,-1.628186 -6.01902,-3.130318 -9.84786,-5.115644 z m -6.96967,347.958126 c -0.57775,-1.98534 -1.61767,-3.62403 -1.37608,-5.04739 1.30254,-7.61566 2.41601,-15.32063 4.56417,-22.71573 3.51372,-12.10633 8.84469,-23.77145 11.371,-36.04584 1.88554,-9.15983 -1.29729,-18.38794 -9.19134,-24.70634 -7.4056,-5.93498 -12.61578,-21.1611 -9.47498,-30.20538 1.96433,-5.66188 4.7585,-11.04013 6.9224,-16.64422 0.86137,-2.22168 2.03786,-5.06313 1.35507,-7.02744 -4.78475,-13.69773 -3.33514,-27.81564 -2.74689,-41.73398 0.2206,-5.19442 3.42443,-10.39934 5.86145,-15.3049 1.48637,-2.99375 4.00743,-4.11772 7.77851,-2.05886 5.58835,3.04628 11.5128,5.59884 17.52133,7.73124 8.13565,2.89396 11.6809,8.98126 12.99392,16.85955 1.23953,7.43711 1.42861,15.1631 3.62403,22.28508 1.75425,5.70914 2.71014,12.66831 10.99809,14.46456 7.22702,1.5704 7.65249,-4.91606 10.78802,-7.83103 5.4308,-5.05262 18.47198,-7.73649 24.61181,-3.37192 5.3625,3.80786 9.88986,8.76593 15.21037,12.64205 5.00008,3.63977 6.76482,8.25645 5.47281,13.91306 -1.36035,5.9665 -3.38243,11.78068 -5.34677,18.44048 4.3278,0.81933 9.04954,1.04518 13.24604,2.64711 10.12624,3.88137 20.25775,7.91506 29.93753,12.77859 18.52976,9.31216 16.01396,31.40815 5.97702,40.36315 -1.3551,1.208 -2.0116,3.19858 -2.99375,4.82678 0.59873,0.53047 1.19749,1.06093 1.79625,1.59139 2.12186,-1.9538 4.69545,-3.59775 6.28688,-5.91396 5.67763,-8.27746 11.51282,-16.51291 16.36586,-25.27884 5.16291,-9.32265 10.44133,-18.87114 13.54016,-28.97112 3.49269,-11.38676 4.70596,-23.48257 6.72804,-35.30003 3.16708,-18.47198 5.78271,-37.02799 3.52947,-55.79935 -0.94537,-7.88879 -2.40024,-15.81961 -4.70596,-23.39854 -1.56514,-5.13664 -5.58833,-7.67871 -11.46552,-4.52739 -3.67129,1.96958 -7.77853,4.60617 -11.62312,4.50113 -10.28381,-0.28364 -20.69366,-1.11347 -30.72013,-3.27212 -5.04212,-1.09246 -9.72704,-5.10514 -13.90254,-8.59785 -5.92975,-4.95282 -10.81431,-11.20294 -16.92259,-15.87213 -6.67555,-5.10515 -7.69974,-7.10623 -3.72907,-14.84797 7.40033,-14.4488 14.57487,-29.023652 22.26406,-43.314887 2.87296,-5.351994 1.65969,-9.527479 -2.82041,-12.080049 -14.39104,-8.182931 -27.78412,-18.408959 -44.44936,-22.117008 -7.55793,-1.680706 -14.90047,-4.469622 -22.51618,-5.740653 -7.56318,-1.271027 -15.33641,-1.37082 -23.0309,-1.754235 -2.47376,-0.120744 -4.98956,0.493708 -8.18817,0.845607 4.748,9.275373 9.39618,17.30599 13.07799,25.762023 9.12306,20.951018 6.9749,37.227582 -18.92892,42.369492 -8.90775,1.76473 -18.14111,2.02734 -26.95955,4.09146 -16.17151,3.78158 -26.48683,22.65798 -22.30083,38.89253 1.13447,4.39084 2.6471,10.14725 -2.57883,12.69456 -6.29739,3.05679 -13.17777,5.45703 -20.06865,6.61252 -8.47704,1.42334 -15.39944,4.73748 -19.41737,12.22186 -3.74482,6.98018 -7.1535,14.307 -9.46447,21.86491 -4.61142,15.07381 -8.35098,30.41023 -12.48972,45.62583 -1.70697,6.26588 -11.28698,11.78594 -16.26081,8.08839 -7.89931,-5.88245 -14.77443,-13.23553 -21.6338,-20.39428 -3.40343,-3.55049 -5.30472,-8.57159 -8.78168,-12.02229 -7.1325,-7.07996 -9.83212,-14.9635 -8.77119,-25.08449 0.84562,-8.06738 -0.21534,-16.37111 -0.83509,-24.53827 -0.17334,-2.30046 -1.76474,-4.48537 -2.96749,-7.34782 -1.16599,1.48637 -1.77,1.93806 -1.94332,2.51579 -10.12099,34.5122 -8.89722,69.13469 -0.69855,103.74668 4.52741,19.09698 15.18412,35.54162 23.87127,52.80034 9.79534,19.4594 28.67175,29.90077 44.61217,43.17306 4.03369,3.36143 9.63253,4.85304 13.6452,8.23021 17.83122,15.00555 39.23918,20.73044 61.51375,22.64222 16.25556,1.39709 32.84723,0.89289 49.12379,-0.61451 10.31533,-0.95589 20.46784,-4.85304 30.41026,-8.26695 8.9182,-3.0673 17.16941,-8.27747 26.20321,-10.78275 19.98986,-5.54633 34.38612,-18.97097 49.21311,-31.57098 -2.62611,-5.8247 -5.18395,-10.76701 -7.0012,-15.97193 -0.54099,-1.54415 0.47268,-5.04737 1.67021,-5.55158 8.71338,-3.71331 8.05161,-11.2187 8.35099,-18.56127 0.28357,-6.99067 -4.87404,-8.17767 -9.79534,-9.85312 -1.23953,-0.42017 -2.2742,-1.4181 -3.50847,-1.89605 -7.83631,-3.02526 -15.6148,-6.24486 -23.59289,-8.86045 -4.75326,-1.55465 -9.90564,-1.84352 -14.73768,-3.20384 -5.64085,-1.59142 -7.10094,-5.86146 -5.36773,-11.06114 1.40757,-4.21226 3.58199,-8.16191 5.14191,-12.33215 2.63132,-7.0432 -1.49688,-15.59903 -9.17562,-19.44364 -4.99483,-2.50004 -9.42767,-0.13656 -14.37001,6.11356 -2.44224,3.08829 -6.22909,6.6913 -9.73756,7.08522 -14.36475,1.60717 -30.04784,-10.78802 -33.30945,-24.46474 -1.84352,-7.74699 -2.93597,-15.71983 -3.78155,-23.6559 -0.71433,-6.75959 -4.56944,-11.64938 -10.63046,-13.04121 -4.09147,-0.94014 -6.19235,0.43593 -6.32366,4.28054 -0.31513,9.48547 -1.56515,19.17577 -0.12601,28.4249 2.02736,13.05695 4.03895,25.31033 -4.83726,36.97022 -2.0326,2.66811 -2.39501,8.24594 -1.08196,11.4918 2.86245,7.06947 6.41819,14.24922 11.29222,20.02665 9.06002,10.73022 10.07369,22.76827 6.54948,35.03215 -3.60825,12.56323 -8.96023,24.65908 -14.01284,36.76536 -2.58935,6.20288 -4.98959,12.89417 -12.72608,16.58647 z m -156.63633,427.7968 c 2.98325,-20.54136 5.67238,-41.12998 9.01277,-61.60829 5.6829,-34.78007 12.2954,-69.40782 17.54761,-104.25089 5.2522,-34.83784 9.11258,-69.89098 14.00237,-104.7866 1.7805,-12.74183 4.82677,-25.29984 7.16925,-37.95763 1.26053,-6.8016 2.92548,-13.63472 3.08829,-20.48358 0.0788,-3.23535 -2.17966,-7.40558 -4.70597,-9.66404 -7.74699,-6.93816 -16.18202,-13.10426 -24.25466,-19.69051 -2.01159,-1.63866 -3.97066,-3.50843 -5.43077,-5.63033 -11.32376,-16.53394 -19.58021,-34.71702 -26.51837,-53.34134 -6.55475,-17.60013 -9.69031,-36.15612 -7.47913,-55.04304 1.07145,-9.17033 3.33515,-18.25664 5.67763,-27.21688 2.05361,-7.86255 5.98226,-14.53283 14.9215,-15.2944 -7.5264,-27.13286 -14.85322,-53.89806 -16.48141,-81.45634 -1.25527,-21.23464 1.24477,-41.97033 10.08949,-62.64822 12.43721,-29.09719 32.03842,-52.22786 52.40119,-75.232497 6.74909,-7.631442 13.92884,-15.094814 21.91744,-21.355433 6.39717,-5.021095 14.32799,-8.088378 21.56026,-12.048548 12.84162,-7.027437 25.66224,-14.09689 38.52488,-21.092826 1.33405,-0.724799 3.04101,-1.764739 4.30154,-1.475861 15.73559,3.602999 30.72537,-3.256368 46.15632,-3.114555 19.81129,0.17334 39.45454,1.292043 58.04204,9.616767 5.04212,2.258448 11.28173,1.706978 16.59694,3.534735 8.11465,2.78892 16.59695,5.472787 23.69267,10.084219 14.50656,9.432957 29.07095,19.133761 41.97034,30.573045 11.9855,10.640952 21.83863,23.577123 30.2684,37.563724 14.79017,24.53303 23.71367,50.67321 27.2274,79.18739 2.99374,24.29668 1.38657,48.0261 -4.75322,71.36687 -2.92027,11.11891 -8.49282,21.58129 -13.32486,32.1277 -2.15864,4.71123 -2.8204,7.57366 3.21435,9.59577 6.89612,2.30571 7.75226,8.89197 7.51062,14.82695 -0.90862,22.42161 -1.22901,44.95356 -3.91811,67.18088 -1.8593,15.35215 -6.25536,30.61504 -11.33948,45.28443 -5.42555,15.65157 -13.20929,30.468 -19.46991,45.85172 -1.69647,4.15971 -2.3635,9.06001 -2.22694,13.58741 0.61451,20.43106 4.29628,40.44191 8.25644,60.48433 3.75533,18.97618 5.55158,38.33579 8.63989,57.45379 3.09879,19.22305 7.2638,38.2885 9.96343,57.5641 2.21642,15.84062 2.85192,31.89658 4.40131,47.84224 1.73322,17.93625 3.88138,35.83051 5.51481,53.77202 1.38657,15.27337 2.30046,30.59405 3.42443,45.89372 -3.13553,0 -6.27635,0 -9.41192,0 -2.2322,-25.10028 -4.25954,-50.22678 -6.74382,-75.30079 -2.79944,-28.24107 -5.77219,-56.47161 -9.14936,-84.64967 -1.63865,-13.67672 -4.46958,-27.20636 -6.59147,-40.8306 -3.18283,-20.46254 -6.36566,-40.92511 -9.26488,-61.42443 -3.08305,-21.82815 -6.67556,-43.63526 -8.31426,-65.57897 -0.6355,-8.60307 2.02738,-18.20411 5.71441,-26.1822 5.07361,-10.96658 14.04437,-19.90056 16.66521,-32.40605 3.14608,-15.00028 8.60837,-29.65915 10.35737,-44.78026 2.47902,-21.37643 2.58932,-43.0365 3.38765,-64.58627 0.0999,-2.72064 -1.74374,-5.5148 -2.68389,-8.2722 -2.80466,1.39182 -6.39191,2.11138 -8.27743,4.29629 -7.20076,8.31948 -10.16829,18.59277 -12.20614,29.23376 -2.63659,13.7765 -5.26269,27.56878 -8.42452,41.23497 -2.42128,10.48341 -7.5684,19.45939 -17.09589,25.35236 -3.58725,2.22168 -16.83858,1.88556 -17.41631,-1.16597 -0.81406,-4.31205 0.15741,-9.4487 1.87504,-13.60845 1.82778,-4.43284 5.90349,-7.89931 8.06213,-12.25337 1.45487,-2.92549 1.28679,-6.65456 1.84352,-10.02647 -0.75629,-0.39916 -1.51262,-0.80358 -2.26368,-1.20275 -2.57359,1.52314 -5.20495,2.95701 -7.70501,4.58518 -3.17231,2.06412 -6.04527,4.6797 -9.39618,6.37618 -15.9404,8.08313 -28.25681,18.86588 -35.64665,36.12459 -8.40351,19.63273 -9.24388,39.6331 -8.19869,60.15342 0.70906,13.93936 3.05679,27.86816 2.80466,41.76548 -0.46216,25.45218 -2.36872,50.87806 -3.55047,76.31972 -2.21642,47.55863 -4.811,95.11205 -6.30787,142.69172 -0.77733,24.68007 0.45168,49.42318 0.77206,74.13478 -3.58725,0 -7.1745,0 -10.75649,0 0.12578,-8.06213 0.44643,-16.12952 0.34645,-24.19165 -0.24164,-19.82177 -1.36031,-39.66458 -0.84562,-59.46536 0.47272,-17.99403 3.10404,-35.92507 3.95489,-53.92958 2.19546,-46.48722 3.93916,-93.00067 5.84571,-139.50889 0.55151,-13.45612 0.3678,-26.72319 -1.81199,-40.23183 -2.04834,-12.66831 -1.06619,-25.95638 -0.36246,-38.90829 0.76158,-13.9551 1.73847,-28.03625 8.76067,-40.77808 1.75425,-3.18282 2.65236,-6.83312 3.82885,-9.96338 -40.11626,13.9498 -80.83657,12.38466 -122.44448,6.38139 3.4822,5.26269 6.68604,9.69031 9.46446,14.36475 9.53799,16.04548 8.64512,33.59309 7.46863,51.28248 -1.05044,15.7671 -1.89605,31.57097 -2.04837,47.36433 -0.21008,22.01193 0.26261,44.03442 0.52523,66.05161 0.28887,24.15487 0.79308,48.30448 0.98215,72.46461 0.14708,18.76084 -0.12074,37.52694 -0.0788,56.29831 0.063,30.92494 0.22586,61.84463 0.34664,92.76958 -4.48012,0 -8.9655,0 -13.44562,0 0.0107,-17.81547 0.21008,-35.63617 -0.005,-53.45164 -0.26786,-22.29558 -1.21851,-44.58067 -1.23953,-66.87624 -0.021,-20.49932 1.16074,-40.99868 1.14498,-61.49273 -0.0156,-23.41955 -0.91387,-46.83383 -1.17124,-70.25341 -0.17334,-15.79336 -0.57774,-31.63398 0.36239,-47.38007 0.90338,-15.07907 3.90763,-30.02158 5.10514,-45.09539 2.02209,-25.50992 -4.70597,-47.13321 -28.92912,-60.28995 -3.50846,-1.90655 -6.4812,-4.77952 -9.75858,-7.1325 -6.27112,-4.49588 -12.05904,-10.15776 -18.9972,-13.08321 -8.47179,-3.57151 -14.29648,-9.24388 -19.53292,-16.2083 -1.47062,-1.95382 -3.50322,-3.47695 -5.27322,-5.19968 -0.67227,0.34149 -1.3498,0.67754 -2.02208,1.01892 1.28679,7.82053 2.26895,15.70932 3.96541,23.44055 1.03468,4.69026 -0.1523,7.05898 -4.72173,5.3625 -4.28579,-1.59665 -9.05479,-3.73429 -11.87522,-7.09572 -9.31215,-11.09787 -15.59379,-23.8397 -15.35218,-38.76647 0.25208,-15.4362 -1.92231,-29.99529 -11.42355,-42.84742 -2.43177,-3.29313 -4.38558,-4.08621 -6.4392,-0.58825 -2.34248,3.98643 -4.0862,8.3615 -5.79317,12.68407 -6.01378,15.23137 -5.38876,31.44492 -3.26687,46.8286 1.96432,14.28074 8.25647,28.02046 13.09899,41.839 8.65563,24.70633 22.78405,45.43677 45.52082,59.30257 8.06738,4.9213 10.96134,12.05906 10.58843,20.76718 -0.56724,13.15151 -1.58616,26.28203 -2.53681,39.4125 -1.0557,14.63261 -1.71747,29.31778 -3.52947,43.86112 -1.59143,12.78383 -4.84253,25.35762 -6.80161,38.10993 -3.36665,21.93319 -6.13981,43.9609 -9.4697,65.90461 -2.59985,17.13789 -5.5831,34.2233 -8.5611,51.30345 -1.10821,6.34465 -3.14081,12.55274 -3.96015,18.92366 -2.87296,22.31135 -5.39927,44.66471 -8.05164,67.00232 -6.27637,0 -12.55275,0 -18.82913,0"
       id="path4" />
  </g>
</svg>
