<?xml version="1.0" encoding="UTF-8" standalone="no"?>
<svg
   xmlns:dc="http://purl.org/dc/elements/1.1/"
   xmlns:cc="http://creativecommons.org/ns#"
   xmlns:rdf="http://www.w3.org/1999/02/22-rdf-syntax-ns#"
   xmlns:svg="http://www.w3.org/2000/svg"
   xmlns="http://www.w3.org/2000/svg"
   xmlns:sodipodi="http://sodipodi.sourceforge.net/DTD/sodipodi-0.dtd"
   xmlns:inkscape="http://www.inkscape.org/namespaces/inkscape"
   width="800mm"
   height="800mm"
   viewBox="0 0 800 800"
   version="1.1"
   id="svg2127"
   inkscape:version="1.0.2 (1.0.2+r75+1)"
   sodipodi:docname="hand2.svg">
  <defs
     id="defs2121" />
  <sodipodi:namedview
     id="base"
     pagecolor="#ffffff"
     bordercolor="#666666"
     borderopacity="1.0"
     inkscape:pageopacity="0.0"
     inkscape:pageshadow="2"
     inkscape:zoom="0.14409175"
     inkscape:cx="361.68027"
     inkscape:cy="1207.0283"
     inkscape:document-units="mm"
     inkscape:current-layer="layer1"
     inkscape:document-rotation="0"
     showgrid="false"
     inkscape:window-width="1920"
     inkscape:window-height="1080"
     inkscape:window-x="0"
     inkscape:window-y="0"
     inkscape:window-maximized="1" />
  <metadata
     id="metadata2124">
    <rdf:RDF>
      <cc:Work
         rdf:about="">
        <dc:format>image/svg+xml</dc:format>
        <dc:type
           rdf:resource="http://purl.org/dc/dcmitype/StillImage" />
        <dc:title></dc:title>
      </cc:Work>
    </rdf:RDF>
  </metadata>
  <g
     inkscape:label="Layer 1"
     inkscape:groupmode="layer"
     id="layer1">
    <path
       style="fill:#211e1e;fill-opacity:1;fill-rule:nonzero;stroke:none;stroke-width:1.63586"
       d="m 419.59074,354.61501 c -4.87565,9.0548 -9.22092,17.32993 -13.75787,25.4965 -2.52408,4.53698 -6.42844,8.60107 -7.78314,13.4192 -1.55918,5.52741 -2.81165,13.49589 3.85322,15.82826 5.59134,1.96177 13.71953,1.73173 18.69102,-1.09273 4.53697,-2.58157 6.35178,-9.95575 9.25926,-15.02312 -4.03854,-3.05446 -7.01632,-5.31012 -11.11238,-8.40293 2.27488,-5.69361 4.59447,-11.58527 6.99077,-17.45138 2.3196,-5.67436 -0.81155,-11.51493 -6.14088,-12.7738 z m -44.29613,28.55096 c 26.44221,-4.22384 34.8324,-32.20606 27.33681,-50.79483 -1.90424,-4.72868 -7.00354,-11.18268 -12.90158,-6.96524 -5.40603,3.86604 -10.93347,10.59478 -12.01338,16.82514 -2.31323,13.31055 -1.77645,27.11314 -2.42185,40.93493 z m -10.26249,-32.03992 c -1.45695,-10.78008 -1.76367,-18.45461 -3.82128,-25.6179 -0.81794,-2.83081 -5.70635,-6.53066 -8.44131,-6.30061 -4.56891,0.39601 -11.65552,2.60712 -12.85048,5.84052 -5.95557,16.10944 -8.23683,32.94094 -0.69014,49.3443 5.08014,11.04848 10.63312,11.61082 16.94014,0.77318 4.65839,-8.00678 6.58819,-17.60468 8.86307,-24.03949 z m -41.90624,4.17909 c -2.23014,-12.64596 -3.77654,-23.04905 -6.07697,-33.27959 -0.61985,-2.74776 -3.40592,-6.831 -5.4891,-7.00995 -3.31006,-0.29399 -9.39981,1.55283 -9.89825,3.57845 -3.27173,13.32975 -16.52477,24.77442 -8.26238,40.45569 0.5751,1.09913 -0.57513,2.9906 -0.49205,4.49223 0.35146,6.24315 0.51121,13.1061 7.0355,16.1414 6.66486,3.0992 12.03255,-1.39943 15.20841,-6.339 3.77656,-5.87246 5.77665,-12.87601 7.97484,-18.03923 z m 30.84498,78.18281 c 0,-14.48633 0,-27.11318 0,-40.30873 -11.84723,1.22053 -20.3844,-4.30049 -26.03963,-13.90484 -5.7447,4.17913 -11.08043,8.05793 -16.86984,12.26901 5.79582,13.3361 -2.88832,23.36855 -10.17942,34.28283 15.92411,15.81551 34.91547,3.64239 53.08889,7.66173 z m -69.4092,-57.98371 c -4.59447,-8.97167 -8.51799,-16.26916 -12.01976,-23.76474 -0.86905,-1.85953 -1.02241,-4.60089 -0.35783,-6.54345 3.84682,-11.26573 8.28793,-22.32701 12.04532,-33.61829 4.45388,-13.38725 8.23044,-27.00454 12.69712,-40.39179 1.75728,-5.27182 4.14078,-10.17304 11.70665,-6.08975 4.25579,2.30041 9.42539,2.92665 14.91446,4.51777 -6.77349,-22.95959 -13.2147,-44.82651 -20.19907,-68.5082 -25.40063,11.82807 -51.11437,23.79673 -77.84414,36.24465 7.59783,5.85331 13.84096,10.16024 19.38118,15.22757 1.86589,1.70617 3.43146,5.93001 2.61993,8.03877 -5.13765,13.3233 -10.86318,26.4294 -16.62703,39.5035 -5.77664,13.1061 -11.89837,26.06521 -17.71336,39.15216 -3.39952,7.64253 -7.34861,15.18286 -9.54681,23.18325 -4.01297,14.58858 -9.23369,29.38165 -4.5753,44.74341 1.27802,4.21749 4.49224,9.24006 8.20488,11.04849 8.33269,4.06408 17.47053,6.569 26.45501,9.0803 1.19495,0.33852 4.46029,-2.72216 4.92677,-4.65197 0.85627,-3.59124 -0.0576,-7.57223 0.51121,-11.27213 2.32598,-15.24037 8.00679,-28.12282 24.87663,-32.05271 6.30703,-1.46973 12.74184,-2.40907 20.54414,-3.84684 z M 556.32594,268.78966 c 0.0895,1.69978 -0.096,2.8436 0.2365,3.8085 4.19828,12.14121 8.46687,24.26322 12.72905,36.38519 3.40595,9.681 1.59752,19.33646 1.02244,29.2411 -0.41549,7.07384 -1.67423,10.3072 -8.54993,10.3711 -23.24079,0.21098 -46.48794,0.59428 -69.71593,0.096 -3.02256,-0.064 -7.70009,-4.38363 -8.58832,-7.57228 -2.79886,-9.9813 -4.14714,-20.36524 -6.32616,-32.05906 -16.33309,18.53762 -27.70107,38.28941 -36.81334,59.66429 -3.84685,9.02281 -0.56233,16.22445 3.98742,22.50591 7.70643,10.63948 16.85067,20.24379 25.44534,30.23789 3.58484,4.17274 7.30388,8.23047 11.96866,13.46394 1.04159,-10.97178 1.94257,-20.32048 2.80526,-29.6692 0.428,-4.61363 2.29402,-6.2495 7.42528,-5.79581 18.94662,1.66783 37.85488,2.45377 56.76319,5.89806 18.45461,3.3612 37.64403,3.2781 56.52039,3.489 7.91733,0.0895 18.50572,0.79234 21.40043,-9.34871 2.36431,-8.30073 3.45065,-17.86033 1.81477,-26.21855 -3.13755,-16.05831 -8.23683,-31.77796 -13.2211,-47.42092 -5.78301,-18.17978 -12.10922,-36.19986 -18.75492,-54.07934 -0.94574,-2.53046 -5.06736,-5.55301 -7.66173,-5.49546 -10.78648,0.22999 -21.54737,1.55917 -32.48725,2.49851 z m -85.18632,526.95269 c -3.54011,-20.09685 -6.98437,-40.21925 -10.65229,-60.29054 -3.84683,-21.01063 -8.01318,-41.95736 -11.81527,-62.96799 -1.28442,-7.10575 -1.69338,-14.36493 -2.82443,-21.49623 -2.28764,-14.39688 -5.06096,-28.71711 -7.13774,-43.14594 -2.32598,-16.13496 -3.90435,-32.385 -6.16643,-48.53276 -1.93619,-13.82814 -3.62318,-27.76497 -6.81824,-41.31832 -3.04807,-12.93996 -2.3132,-25.40702 -0.79876,-38.41087 2.15347,-18.45457 2.40268,-37.13284 3.39955,-54.57777 -11.09321,-2.43466 -21.37487,-3.27815 -30.43603,-7.05469 -10.45419,-4.35164 -14.64609,-13.82174 -11.26574,-24.46768 -6.99076,-0.94573 -12.44151,-1.68057 -19.31726,-2.61351 0,10.02605 0.0385,20.26934 -0.0255,30.51269 -0.019,2.9778 -0.18529,5.98111 -0.56871,8.93336 -1.43138,11.15068 -2.50493,11.82803 -13.86011,12.29451 -8.35185,0.345 -16.67176,1.34834 -25.56677,2.10232 1.68698,3.91715 3.16309,7.34864 4.74146,11.01014 -12.69073,4.28778 -18.42905,-6.13447 -26.51251,-10.22415 -6.01307,-3.04165 -10.65228,-8.72886 -16.11582,-12.97825 -6.23034,-4.85008 -6.31341,-8.08987 -0.55594,-13.26585 6.28786,-5.64246 11.75138,-11.82807 10.81206,-21.31097 -0.63264,-6.40286 -5.59134,-12.03892 -11.96865,-11.47658 -7.99402,0.70929 -16.20529,1.75727 -23.66892,4.47303 -3.96824,1.44418 -8.0579,6.19201 -9.49567,10.3456 -6.58819,19.04885 -4.49864,36.96668 7.1569,54.19437 8.7736,12.9783 15.71324,27.21539 23.21522,41.03077 5.96194,10.95903 12.72266,21.68802 17.04238,33.2924 10.00049,26.90229 15.36816,54.69282 14.58857,83.75498 -0.56232,20.85728 1.75727,41.77841 1.7445,62.67403 -0.006,17.06155 -2.00009,34.11669 -2.34517,51.19743 -0.46009,22.7615 -0.17894,45.54216 -0.21089,68.31647 -4.36444,0 -8.72887,0 -13.09329,0 0.0385,-21.32373 -0.3259,-42.66666 0.21725,-63.97763 0.59427,-23.31105 3.11836,-46.6093 2.84999,-69.89484 -0.40895,-35.33721 0.59427,-70.93002 -7.78315,-105.67294 -3.12475,-12.94636 -6.46039,-26.1419 -12.09645,-38.09137 -6.42204,-13.61089 -15.59183,-25.91181 -23.42608,-38.86456 -6.16644,-10.1986 -11.86641,-20.68469 -18.32679,-30.68523 -1.85313,-2.86911 -5.32294,-5.46352 -8.58829,-6.5051 -11.41909,-3.6168 -23.79672,-4.96509 -34.46179,-10.01325 -16.17973,-7.66174 -22.97879,-23.70089 -20.49305,-41.43338 1.96176,-14.00073 6.06422,-27.13873 12.33928,-39.97643 13.86653,-28.35922 26.4614,-57.33834 39.99562,-85.8637 2.61355,-5.50186 0.43454,-6.60095 -3.81488,-8.91416 -7.09302,-3.86604 -13.85374,-8.48607 -20.263,-13.432 -5.11847,-3.94909 -3.62318,-8.16653 1.69337,-10.73533 19.79013,-9.56601 39.69528,-18.89552 59.51095,-28.39122 10.39669,-4.99063 20.53777,-10.56919 31.16451,-14.98477 3.36757,-1.39943 7.26552,-3.6104 10.14745,-3.69985 2.85638,-0.0895 7.52116,4.35803 8.5244,7.68728 4.0577,13.4064 6.6393,27.24734 10.4478,40.73684 4.47946,15.85385 9.70015,31.49676 14.46717,47.27393 0.50481,1.66782 0.81154,4.65837 0,5.20151 -1.53362,1.00964 -4.14077,1.32278 -5.97474,0.79239 -6.51151,-1.87867 -12.85048,-4.32608 -19.32365,-6.35175 -1.99371,-0.62624 -4.1919,-0.59429 -6.6393,-0.90739 -2.57521,8.00678 -5.01623,15.57266 -6.99715,21.72632 8.61385,5.33572 16.16693,10.01965 22.67844,14.05179 8.21765,-1.91702 16.77398,-6.05141 24.78717,-5.16957 7.63616,0.83069 14.69723,6.89494 22.72319,11.02293 12.86325,-10.70344 18.92105,-8.02598 31.99518,2.45377 4.62642,3.71264 6.81184,11.36162 8.43493,17.64947 1.27162,4.92033 2.19179,6.9396 7.77675,6.16001 3.18226,-0.44748 6.73514,1.70617 11.06123,2.965 6.59458,-11.77692 12.89523,-23.97563 20.09686,-35.62475 6.2495,-10.10275 13.40003,-19.6687 20.44192,-29.25386 1.34193,-1.83397 5.00983,-4.23663 5.93641,-3.6679 2.87551,1.77643 6.6904,4.62643 7.06105,7.45724 2.03842,15.62377 3.1631,31.36257 4.58808,47.06303 0.096,1.06075 0.12752,2.12152 0.18548,3.12476 10.65869,0 21.19598,0.85629 31.52237,-0.26199 8.75442,-0.93934 17.32994,-3.9555 25.86066,-6.454 4.44113,-1.30359 7.18889,-3.13116 5.10572,-9.45097 -5.66161,-17.17018 -10.32,-34.67901 -15.00396,-52.15594 -3.01611,-11.24654 0.44747,-16.12222 12.41595,-16.21167 15.36817,-0.12148 30.80028,0.3515 46.10455,1.71898 5.61687,0.50479 11.41907,3.5976 16.21165,6.86934 2.84996,1.94258 4.76702,6.33896 5.59132,9.9749 2.55605,11.29133 4.01939,22.83821 6.5946,34.12313 4.00658,17.60468 8.69691,35.05607 12.86325,52.62241 2.79246,11.80891 5.34212,23.67529 7.66809,35.58005 1.42502,7.27834 -1.41219,12.18592 -8.47323,15.59181 -17.59833,8.49243 -35.98265,9.09312 -54.89731,7.36779 -22.94045,-2.08956 -45.9256,-3.82128 -68.90436,-5.54021 -5.06096,-0.377 -10.17944,-0.0575 -15.61741,-0.0575 -2.46656,18.11592 0.5304,36.51299 -5.89805,54.53947 -10.88234,-5.50187 -19.43226,-11.32328 -24.23763,-21.64327 -1.18855,-2.54967 -4.23025,-4.17274 -5.92363,-6.56901 -4.47306,-6.34535 -8.53716,-12.9847 -13.04857,-19.2981 -1.94258,-2.72856 -4.58809,-4.95233 -8.07068,-8.62022 -1.0991,19.6176 -1.86591,37.38843 -3.21423,55.12091 -0.5112,6.69685 -2.28764,13.3106 -3.63594,19.9371 -2.81805,13.82178 0.24919,26.97899 2.83718,40.58353 4.56254,23.97563 6.73517,48.39857 10.21777,72.59145 2.12151,14.74193 4.93955,29.38165 7.25275,44.09802 5.07373,32.37221 9.87908,64.78917 15.12537,97.12943 1.65503,10.23055 4.54338,20.25659 6.54345,30.44238 1.60393,8.18573 2.71581,16.4737 4.05134,24.71693 -3.8213,0 -7.63619,0 -11.45747,0"
       id="path6" />
    <path
       style="fill:#211e1e;fill-opacity:1;fill-rule:nonzero;stroke:none;stroke-width:1.63586"
       d="m 505.24992,148.57286 c -1.23964,-8.58189 -0.73484,-15.19563 -3.24616,-20.33966 C 496.82139,117.61288 490.39935,107.52931 483.81119,97.675795 472.41762,80.607859 461.81647,62.75395 448.47396,47.309096 432.27507,28.55418 431.25904,30.931303 417.78233,47.992841 c -9.06754,11.482987 -19.49617,22.352547 -26.22494,35.126327 -10.58838,20.109612 -23.82865,37.292562 -41.64423,51.299632 -5.00984,3.94269 -8.75443,9.49569 -12.93355,14.14767 15.75796,7.80869 29.90563,14.53745 43.75298,21.83493 5.19514,2.73496 7.62976,0.46001 9.78321,-3.48899 11.65553,-21.40041 23.25995,-42.83276 34.84519,-64.27153 4.08967,-7.578636 11.76416,-7.495563 17.3555,-0.65816 14.3841,17.57913 29.08768,34.90267 43.97025,52.07284 4.91394,5.66801 5.01618,7.79593 -1.09273,11.67471 -7.23359,4.58809 -14.28825,9.45092 -22.78708,15.10618 29.79063,11.26573 58.5652,22.14806 87.62735,33.139 4.34528,-30.62769 8.45412,-59.67069 12.92716,-91.20577 -19.31721,14.16044 -39.49715,19.94348 -58.11152,25.80318 z M 433.40611,112.4433 c -5.11845,10.83118 -10.03882,21.59851 -15.26593,32.21882 -6.32618,12.85687 -12.81851,25.63063 -19.41949,38.34694 -3.16309,6.08977 -9.07394,4.86923 -13.75788,3.39315 -5.29098,-1.66783 -10.07079,-5.00983 -14.98476,-7.78313 -10.30721,-5.82141 -20.52498,-11.80887 -30.83861,-17.6111 -5.84053,-3.2845 -12.01975,-6.01947 -17.6558,-9.6171 -4.2047,-2.69022 -2.86916,-5.61688 0.86905,-8.16014 3.2845,-2.23013 7.11856,-4.33247 9.25923,-7.4764 15.22121,-22.39088 29.45833,-45.465493 45.25464,-67.428235 9.54043,-13.265813 20.72948,-25.490067 32.21887,-37.16477 11.80249,-12.000596 25.23448,-10.735356 38.03384,-4.038538 2.83719,1.488898 4.62003,5.060954 6.79906,7.751183 14.82501,18.269272 29.79061,36.42353 44.31529,54.92923 4.29414,5.469914 7.20804,12.00058 10.95264,17.93058 9.39341,14.85697 18.20537,17.09989 36.32764,10.07718 7.76399,-3.01613 15.77076,-5.48909 23.81589,-7.67451 6.01951,-1.63586 12.53096,7.13775 11.02293,15.50237 -2.65191,14.70998 -6.1792,29.26023 -8.92696,43.95744 -2.77331,14.83142 -5.11208,29.74584 -7.51474,44.64117 -1.66782,10.32004 -3.99384,13.18915 -14.33298,11.84726 -11.99422,-1.55917 -24.43573,-3.29729 -35.47141,-7.86623 -22.46121,-9.31035 -44.16833,-20.45468 -66.06082,-31.10057 -7.98761,-3.88519 -8.0515,-8.19848 -0.51758,-12.56931 7.49558,-4.35803 15.11895,-8.49242 22.73594,-12.6396 4.30056,-2.33879 4.17276,-5.46994 1.38666,-8.63302 -11.52772,-13.0933 -23.17687,-26.07156 -34.82601,-39.04985 -0.49843,-0.55593 -1.39943,-0.75402 -3.41871,-1.78282"
       id="path12" />
  </g>
</svg>
