<?xml version="1.0" encoding="UTF-8" standalone="no"?>
<!-- Created with Inkscape (http://www.inkscape.org/) -->

<svg
   width="70mm"
   height="70mm"
   viewBox="0 0 70 70"
   version="1.1"
   id="svg6884"
   inkscape:version="1.1.1 (3bf5ae0d25, 2021-09-20)"
   sodipodi:docname="maps.svg"
   xmlns:inkscape="http://www.inkscape.org/namespaces/inkscape"
   xmlns:sodipodi="http://sodipodi.sourceforge.net/DTD/sodipodi-0.dtd"
   xmlns="http://www.w3.org/2000/svg"
   xmlns:svg="http://www.w3.org/2000/svg">
  <sodipodi:namedview
     id="namedview6886"
     pagecolor="#ffffff"
     bordercolor="#666666"
     borderopacity="1.0"
     inkscape:pageshadow="2"
     inkscape:pageopacity="0.0"
     inkscape:pagecheckerboard="0"
     inkscape:document-units="mm"
     showgrid="false"
     fit-margin-top="0"
     fit-margin-left="0"
     fit-margin-right="0"
     fit-margin-bottom="0"
     inkscape:zoom="0.76435185"
     inkscape:cx="162.8831"
     inkscape:cy="272.78013"
     inkscape:window-width="1920"
     inkscape:window-height="1017"
     inkscape:window-x="-8"
     inkscape:window-y="32"
     inkscape:window-maximized="1"
     inkscape:current-layer="layer1" />
  <defs
     id="defs6881" />
  <g
     inkscape:label="Layer 1"
     inkscape:groupmode="layer"
     id="layer1"
     transform="translate(-61.910925,-76.484348)">
    <g
       id="g6956"
       transform="matrix(1.2993267,0,0,1.2993267,217.32567,353.56342)"
       style="fill:#343a40;fill-opacity:1">
      <path
         style="fill:#343a40;fill-opacity:1;fill-rule:nonzero;stroke:none;stroke-width:0.352778"
         d="m -71.989436,-176.35787 c 0.790992,-2.07808 1.029392,-4.33531 0.892969,-6.54293 -0.07442,-1.20027 -0.248048,-2.41019 -0.413413,-3.60219 -0.177768,-1.28433 -0.365182,-2.71336 -1.143773,-3.78547 -0.04685,-0.0634 -0.135047,-0.0606 -0.176389,-0.011 -0.261824,-0.77998 -0.566374,-1.54892 -0.915017,-2.29582 0.147451,0.15159 0.30317,0.28939 0.47129,0.40101 0.139181,0.0923 0.351398,-0.0634 0.290767,-0.22462 -0.231511,-0.62149 -0.686263,-1.14377 -1.025261,-1.71566 -0.446486,-0.75103 -0.815799,-1.54753 -1.179601,-2.34128 -0.662837,-1.44005 -1.343586,-2.84014 -2.108397,-4.23058 -1.101055,-1.99678 -2.640323,-2.70233 -4.721162,-3.35828 -3.260435,-1.03353 -6.299009,-2.41295 -9.717923,-2.91041 -3.276974,-0.47681 -6.584266,0.0524 -9.609064,1.36563 -0.0193,0.007 -0.005,0.0386 0.0138,0.0345 3.300399,-1.21957 6.694506,-1.38218 10.143738,-0.78962 3.154327,0.54019 5.997222,1.8948 9.004099,2.89939 0.862654,0.28664 1.74184,0.52641 2.521811,1.00597 1.063847,0.65181 1.624707,1.85208 2.237934,2.88561 0.719335,1.21405 1.25815,2.5287 1.857597,3.80614 -0.624251,-0.90674 -1.317406,-1.76664 -2.078083,-2.56728 -5.943477,-6.27283 -15.454698,-8.19519 -23.501066,-5.25997 -2.70646,0.98392 -5.1704,2.61 -7.02661,4.82175 -1.73082,2.05741 -2.69407,4.69911 -3.63665,7.18234 -0.94671,2.49838 -2.10151,5.86768 -2.18419,9.01374 -0.29765,-1.71152 -0.36518,-3.46714 -0.2825,-5.14008 0.19844,-4.05281 1.36564,-8.15247 3.37758,-11.67612 0.93569,-1.6371 2.10977,-3.13641 3.5264,-4.38629 1.5682,-1.38217 3.44923,-2.11942 5.40604,-2.78226 4.471735,-1.51447 9.31416,-2.18832 13.981576,-1.26642 4.951289,0.9729 9.13226,3.93982 12.15154,7.92234 3.199804,4.2168 4.019737,9.77305 5.00917,14.84836 0.551215,2.82912 -0.02205,5.86769 -1.167197,8.69956 z m -3.988043,6.73861 c -2.53697,3.17086 -6.169477,3.90811 -9.997669,4.23608 5.622395,-1.30775 10.883748,-4.53925 13.431738,-9.71516 -0.95498,2.02158 -2.170408,3.9026 -3.434069,5.47908 z m -19.778984,3.89433 c -2.101508,-0.42305 -3.992174,-1.39319 -5.706457,-2.65686 2.346799,1.27056 4.936135,2.13183 7.659139,2.46945 4.134114,0.51263 8.49147,-0.36931 12.279697,-2.02434 3.855752,-1.68672 6.698643,-4.3987 8.31784,-8.28614 1.135504,-2.73128 1.586121,-5.61964 1.44005,-8.47769 0.345888,2.96278 0.205327,5.94761 -0.994943,8.75881 -1.685343,3.94808 -5.155244,6.76616 -8.998592,8.48871 -4.266406,1.91134 -9.398219,2.64859 -13.996734,1.72806 z m -16.467557,-22.75692 c 1.21267,-3.90536 2.79328,-8.24205 5.84978,-11.07391 6.735846,-6.24803 18.038514,-5.73264 25.224982,-0.66698 6.931533,4.88928 10.106533,13.96229 7.650868,22.07618 -0.622871,2.05741 -1.576475,4.06521 -3.034439,5.6596 -1.441429,1.58061 -3.305912,2.72989 -5.232411,3.62286 -3.890204,1.80523 -8.57002,2.58245 -12.815757,1.85898 -8.312323,-1.40836 -15.107433,-7.90995 -16.970543,-16.09687 -0.13366,-0.5898 -1.03077,-0.339 -0.90261,0.24667 0.41203,1.87964 1.07625,3.66558 1.94855,5.32612 -0.24529,-0.36243 -0.4837,-0.73725 -0.71107,-1.12173 -0.64768,-1.079 -1.32568,-2.1015 -2.30132,-2.90352 -0.0152,-2.37712 0.66145,-4.88928 1.29397,-6.9274 z m 17.106967,23.88278 c -3.00688,-0.0289 -5.962767,-0.89986 -8.550727,-2.41294 -4.0473,-2.37436 -5.89249,-6.89709 -8.45013,-10.60125 -0.0689,-0.0992 -0.16123,-0.14883 -0.25494,-0.15848 -0.43821,-0.79375 -0.78686,-1.63711 -1.06384,-2.50803 -0.051,-0.40652 -0.0758,-0.81855 -0.0799,-1.23472 0.74414,0.68764 1.17685,1.68534 1.67156,2.54937 0.57878,1.01286 1.1107,2.08222 1.85346,2.98897 1.8948,2.30683 3.89709,4.44141 6.10471,6.4561 1.58061,1.44281 3.31005,2.7299 5.279267,3.58704 1.90996,0.83234 3.979774,1.1355 6.048209,1.20716 0.06615,0 0.132292,0 0.197062,0.003 -0.915018,0.0786 -1.832794,0.13092 -2.754701,0.12403 z m -17.542427,-13.0955 c -0.0427,-0.0841 -0.0854,-0.16536 -0.1254,-0.2508 0.051,0.0786 0.10197,0.15572 0.15434,0.23013 -0.01,0.007 -0.0193,0.0138 -0.0289,0.0207 z m 42.564846,-7.15064 c -0.325219,-2.48047 -0.96876,-5.00917 -1.553048,-7.44003 -0.592557,-2.45566 -1.412491,-4.87136 -2.798798,-6.99905 -1.350476,-2.0712 -3.101964,-3.9343 -5.038108,-5.45703 -7.300845,-5.75745 -17.302646,-5.03122 -25.433072,-1.53514 -5.22139,2.24345 -8.12216,8.2448 -9.38995,13.45517 -1.02388,4.20439 -1.24162,9.25352 0.64216,13.29944 0.19293,0.70969 0.48232,1.37942 0.87644,1.99678 -0.0262,0.0813 -0.0179,0.17639 0.0496,0.27561 2.31786,3.38997 4.01422,7.38353 7.316,9.97562 4.13412,3.24665 9.366526,3.70141 14.400499,3.08405 2.531456,-0.31144 5.080825,-0.5333 7.602636,-0.91088 1.715657,-0.2577 3.410645,-0.65182 4.934755,-1.50896 1.551672,-0.87229 2.742297,-2.23655 3.768936,-3.66558 1.513085,-2.10289 2.731269,-4.43177 3.617348,-6.86539 0.890214,-2.44877 1.344966,-5.10838 1.004592,-7.70461"
         id="path2894" />
      <path
         style="fill:#343a40;fill-opacity:1;fill-rule:nonzero;stroke:none;stroke-width:0.352778"
         d="m -93.113385,-202.38901 c 0.833713,0.19017 0.952225,0.43408 1.037665,1.21405 0.04685,0.44097 0.07579,0.89986 0.108863,1.3615 -0.09784,-0.12402 -0.201192,-0.24391 -0.312815,-0.35691 -0.01379,-0.24254 -0.03583,-0.48645 -0.07717,-0.73312 -0.0041,-0.0221 -0.03858,-0.0179 -0.03583,0.003 0.02755,0.226 0.03996,0.44511 0.0441,0.66422 -0.268718,-0.26459 -0.562239,-0.5085 -0.851627,-0.74828 0.112999,-0.26045 0.246666,-0.51814 0.40652,-0.76205 0.0083,-0.011 -0.0096,-0.0207 -0.01655,-0.011 -0.152961,0.2508 -0.288008,0.50436 -0.403765,0.7593 -0.141936,-0.11713 -0.281118,-0.23289 -0.416165,-0.35278 -0.03447,-0.0317 -0.0813,0.0138 -0.05099,0.0496 0.133671,0.15159 0.265963,0.30593 0.396875,0.4644 -0.0689,0.16674 -0.130912,0.33211 -0.186034,0.49747 -0.126778,-0.14469 -0.259069,-0.28801 -0.39963,-0.42995 0,-0.58153 -0.05788,-1.16444 -0.176389,-1.74597 0.308681,0.0138 0.615982,0.0524 0.932931,0.12678 z m 1.401467,4.52961 c 0.0041,0.0207 0.01379,0.0386 0.0248,0.0565 -0.09233,0.007 -0.183279,0.0179 -0.264583,0.0179 -0.213597,0 -0.435462,0.007 -0.657324,0.007 0.208082,-0.65319 0.323839,-1.30225 0.336239,-1.96508 0.08682,0.0772 0.176389,0.14883 0.270098,0.21497 0.0193,0.0138 0.03996,0.0179 0.05926,0.0179 0.04685,0.56087 0.107484,1.12173 0.23151,1.65089 z m -2.772615,-1.98989 c 0.213596,0.40239 0.453376,0.78686 0.706935,1.16169 -0.01517,0.27423 -0.01379,0.55259 0.0041,0.83509 -0.0689,-0.01 -0.137805,-0.0207 -0.206706,-0.0386 -0.474045,-0.10611 -0.491959,-1.31603 -0.504363,-1.9582 z m 1.3491,2.06017 c -0.158475,-0.007 -0.31695,-0.0165 -0.472666,-0.0386 -0.02342,-0.22599 -0.03859,-0.45199 -0.04272,-0.67661 0.168119,0.23978 0.340377,0.47955 0.515387,0.7152 z m 0.443727,-0.94809 c 0.03583,0.0978 0.139182,0.0882 0.186038,0.0317 -0.07166,0.31006 -0.166744,0.62012 -0.281122,0.92742 -0.04134,0 -0.08268,0 -0.125402,-0.004 -0.250804,-0.33073 -0.500228,-0.66559 -0.738628,-1.00872 0.0097,-0.48645 0.06752,-0.96601 0.190168,-1.43178 0.321084,0.45888 0.576023,0.97014 0.768946,1.48552 z m 0.203952,-0.0537 c -0.0014,-0.01 -0.0028,-0.0207 -0.0069,-0.0317 -0.256318,-0.56362 -0.571889,-1.04456 -0.94396,-1.48139 0.04686,-0.17226 0.104733,-0.34176 0.169499,-0.51126 0.289391,0.34589 0.585668,0.69867 0.915018,0.9977 -0.01655,0.34589 -0.06063,0.68902 -0.133668,1.02664 z m -1.489661,-0.58567 c 0.07028,-0.45751 0.104733,-0.90951 0.107488,-1.3615 0.135047,0.14883 0.259069,0.3073 0.376202,0.46991 -0.135047,0.42995 -0.223241,0.87092 -0.264583,1.31878 -0.08406,-0.12402 -0.166741,-0.24667 -0.248045,-0.37758 0.01379,-0.011 0.0248,-0.0275 0.02893,-0.0496 z m -0.957735,-3.10334 c 0.289387,-0.0358 0.569129,-0.0469 0.847492,-0.04 0.07993,0.55122 0.108864,1.09003 0.08682,1.62747 -0.159851,-0.14883 -0.325215,-0.29766 -0.500225,-0.44098 -0.01101,-0.008 -0.0248,0.007 -0.01242,0.0165 0.183278,0.13091 0.351398,0.2825 0.511252,0.44097 -0.0193,0.43408 -0.07166,0.86541 -0.157095,1.30225 -0.100598,-0.1695 -0.197062,-0.33487 -0.286632,-0.5085 -0.01101,-0.0207 -0.02755,-0.0317 -0.04548,-0.0345 0,-0.007 0,-0.0152 -0.0014,-0.0179 -0.04547,-0.71658 -0.06063,-1.42902 -0.380337,-2.08084 -0.03721,-0.0785 -0.14745,-0.022 -0.130916,0.0551 0.22738,1.0983 0.04272,2.27927 0.103354,3.39135 0.03171,0.60634 0.137805,1.2485 0.752411,1.49241 0.49058,0.19293 3.241146,0.59532 3.337606,-0.20946 0.01655,-0.14056 -0.140557,-0.22186 -0.261825,-0.19292 0,0 0,-0.004 0,-0.004 0.173631,-0.0455 0.09508,-0.0524 -0.101977,-0.10611 -0.05374,-0.0165 -0.112998,-0.0207 -0.17501,-0.0248 0.0069,-0.0138 0.01517,-0.0275 0.0193,-0.0455 0.289388,-1.38218 -0.14194,-3.01653 -0.389985,-4.38492 -0.06339,-0.35278 -1.028015,-0.46164 -1.289844,-0.51815 -0.647678,-0.14193 -1.313271,-0.0923 -1.958191,0.0345 -0.139182,0.0289 -0.107488,0.26458 0.03306,0.24805"
         id="path2896" />
      <path
         style="fill:#343a40;fill-opacity:1;fill-rule:nonzero;stroke:none;stroke-width:0.352778"
         d="m -88.735356,-168.42037 c 0.03305,0.007 0.06752,0.0152 0.101974,0.0179 0.07028,0.0882 0.219107,0.0634 0.224621,-0.0703 0.01379,-0.35691 -0.07028,-0.7028 -0.219111,-1.0225 0.02343,-0.19431 0.05237,-0.38586 0.08544,-0.57878 0.01101,0 0.02205,0 0.03168,-0.004 0.130916,0.66698 0.272853,1.32705 0.445107,1.983 -0.214972,0.0992 -0.454752,0.14745 -0.708311,0.1695 0.01242,-0.16674 0.0248,-0.32797 0.03859,-0.49472 z m -2.414323,-1.10794 c 0.268715,0.34313 0.537432,0.68213 0.811664,1.01975 0.133668,0.1626 0.270094,0.34588 0.41341,0.52641 -0.32246,-0.0427 -0.635275,-0.10198 -0.915017,-0.1447 -0.141937,-0.45475 -0.234266,-0.92742 -0.310057,-1.40146 z m -0.319705,-2.59209 c 0.388606,-0.15848 0.782726,-0.24667 1.182356,-0.29628 0.108864,0.0882 0.214972,0.17914 0.31695,0.27147 -0.235645,0.35691 -0.410658,0.73312 -0.534681,1.12861 -0.05237,-0.0138 -0.106108,-0.0248 -0.158475,-0.0317 -0.02205,-0.003 -0.03305,0.0289 -0.0096,0.0317 0.05237,0.0138 0.101974,0.0317 0.152961,0.0455 -0.04685,0.15296 -0.08819,0.3073 -0.119888,0.46302 -0.24667,-0.32108 -0.496094,-0.63941 -0.786861,-0.93155 -0.02205,-0.15848 -0.0689,-0.46991 -0.168119,-0.68489 0.03583,0.0179 0.07855,0.0221 0.125401,0.004 z m 2.492869,-0.34176 c 0.115757,0.55673 0.220486,1.11483 0.327974,1.67156 -0.169499,-0.3073 -0.401009,-0.59255 -0.602202,-0.83922 -0.04134,-0.0537 -0.08957,-0.0992 -0.135047,-0.14469 0.0055,-0.0358 0.0096,-0.0703 0.01517,-0.10611 0.0028,-0.0207 -0.02893,-0.0317 -0.03583,-0.011 -0.0055,0.0248 -0.0096,0.0496 -0.01655,0.0744 -0.129536,-0.1378 -0.265963,-0.27147 -0.413413,-0.39136 0.0193,-0.0289 0.03447,-0.0565 0.05237,-0.0854 0.02618,-0.0386 -0.03583,-0.073 -0.06201,-0.0345 -0.01792,0.0207 -0.0303,0.0455 -0.04823,0.0703 -0.07442,-0.0634 -0.155719,-0.11576 -0.234265,-0.17226 0.378961,-0.0358 0.763432,-0.04 1.152038,-0.0317 z m -0.562239,1.88378 c 0.03305,-0.32108 0.07442,-0.64216 0.119891,-0.96325 0.0055,0.01 0.01379,0.0179 0.02067,0.0275 0.326595,0.43133 0.465776,0.96049 0.770322,1.39044 0.01655,0.0248 0.03721,0.0386 0.05926,0.0455 -0.03721,0.15572 -0.07579,0.31006 -0.117133,0.46164 -0.202572,-0.3762 -0.502983,-0.71245 -0.853006,-0.96187 z m -0.830958,-0.40652 c 0.100598,-0.38034 0.250804,-0.74828 0.458886,-1.10105 0.15572,0.15296 0.300415,0.31144 0.438218,0.48093 -0.07442,0.31006 -0.144692,0.62012 -0.209462,0.93018 -0.217731,-0.13643 -0.449242,-0.24254 -0.687642,-0.31006 z m 0.660083,0.44097 c -0.0303,0.15159 -0.06477,0.30041 -0.09371,0.45476 -0.02893,0.15571 -0.06339,0.32521 -0.09508,0.49471 -0.08544,-0.0882 -0.16812,-0.18052 -0.249424,-0.27836 -0.121268,-0.14883 -0.237025,-0.30041 -0.352778,-0.452 0.02755,-0.20533 0.06339,-0.40514 0.114377,-0.59945 0.250804,0.091 0.476801,0.21498 0.676618,0.38034 z m -0.850251,1.21681 c -0.0028,-0.21497 0.0055,-0.42581 0.02205,-0.63803 0.180524,0.26872 0.370692,0.5333 0.580154,0.76619 -0.02893,0.24667 -0.03306,0.49747 0.01517,0.72622 -0.0193,-0.0207 -0.03996,-0.0386 -0.05788,-0.0634 -0.205327,-0.23288 -0.405144,-0.46991 -0.603582,-0.70555 0.02618,-0.0179 0.0441,-0.0427 0.0441,-0.0854 z m -0.833713,-1.89756 c 0.242535,0.3073 0.467156,0.66697 0.700042,1.02388 -0.03996,0.24943 -0.06339,0.50712 -0.07579,0.76481 -0.150206,-0.18052 -0.299036,-0.35966 -0.446483,-0.54294 -0.05926,-0.41617 -0.113001,-0.83234 -0.177769,-1.24575 z m 2.328884,3.31281 c -0.114378,0 -0.230131,-0.007 -0.347264,-0.0138 -0.137806,-0.14469 -0.281122,-0.28249 -0.416168,-0.42305 0.0565,0.003 0.118512,-0.0248 0.135046,-0.0882 0.03721,-0.14469 0.05512,-0.29352 0.06615,-0.4451 0.198438,0.16949 0.414789,0.30316 0.658703,0.39136 -0.04134,0.19017 -0.07442,0.38447 -0.09646,0.57878 z m 0.163989,-0.87782 c -0.254939,-0.1626 -0.491963,-0.33624 -0.713825,-0.52916 0,-0.17363 0,-0.34313 0.0096,-0.5085 0.01101,-0.1943 0.02755,-0.3886 0.04685,-0.57877 0.108867,0.1061 0.209462,0.226 0.301791,0.35966 0.221865,0.31833 0.314194,0.67386 0.412034,1.02664 -0.0193,0.0772 -0.03858,0.15159 -0.0565,0.23013 z m 0.421678,-4.02249 c -0.03168,-0.11989 -0.146071,-0.21084 -0.270097,-0.20808 -0.997698,0.0317 -1.958192,0.10197 -2.87183,0.53606 -0.07855,0.0386 -0.103353,0.11299 -0.09371,0.18741 -0.06477,-0.0565 -0.143316,-0.0744 -0.2384,-0.0248 -0.0096,0.007 -0.0041,0.0179 0.0055,0.0207 0.176389,0.007 0.412034,4.09553 0.533301,4.55855 0.02755,0.10611 0.121268,0.20809 0.231511,0.22876 0.348643,0.0703 1.182356,0.2508 1.97335,0.28249 0.0441,0.0358 0.08957,0.0634 0.135047,0.0951 0.05099,0.10611 0.225997,0.0854 0.2384,-0.0565 0.0014,-0.01 0.0028,-0.0207 0.0028,-0.0345 0.595312,-0.0152 1.113455,-0.14193 1.306382,-0.50436 0.143316,-0.0648 0.248045,-0.21222 0.191547,-0.40928 -0.436841,-1.54202 -0.717959,-3.12676 -1.143772,-4.67155"
         id="path2898" />
      <path
         style="fill:#343a40;fill-opacity:1;fill-rule:nonzero;stroke:none;stroke-width:0.352778"
         d="m -76.250331,-184.09693 c -0.0055,0.0455 -0.0096,0.0882 -0.01242,0.12953 -0.330729,0.0675 -0.655945,0.14883 -0.979784,0.24391 0.0083,-0.0386 0.01379,-0.0813 0.02067,-0.12402 0.330729,-0.0565 0.653192,-0.14469 0.971518,-0.24942 z m -0.698666,-0.87919 c 0.323839,-0.0909 0.646299,-0.18604 0.966004,-0.29214 -0.0096,0.0386 -0.01655,0.0772 -0.0248,0.11988 -0.06201,0.2825 -0.152961,0.56086 -0.209462,0.84612 -0.31695,0.11713 -0.63941,0.21222 -0.96876,0.2825 0.06752,-0.32109 0.147451,-0.64217 0.237021,-0.95636 z m -1.405598,0.11989 c 0.150206,-0.25769 0.285253,-0.52228 0.405141,-0.79375 0.370695,-0.0841 0.740008,-0.16537 1.1107,-0.24943 -0.07993,0.21498 -0.158475,0.42995 -0.234266,0.64906 -0.421679,0.15158 -0.846116,0.29214 -1.281575,0.39412 z m 0.868162,-2.13734 c 0.378961,-0.0923 0.757922,-0.18052 1.139638,-0.24667 -0.126778,0.36243 -0.261825,0.72347 -0.395496,1.08314 -0.372071,0.10198 -0.746897,0.20119 -1.118968,0.30317 0.150209,-0.37069 0.275607,-0.75103 0.374826,-1.13964 z m 2.225534,0.32108 c -0.143316,0.0524 -0.288011,0.10887 -0.431327,0.16537 -0.0014,-0.10611 -0.0041,-0.21084 -0.0055,-0.3142 -0.0014,-0.0455 -0.07028,-0.0455 -0.07303,0 -0.0055,0.1199 -0.01655,0.23703 -0.02755,0.35278 -0.198438,0.0785 -0.398255,0.15159 -0.598068,0.21222 -0.05788,0.0179 -0.115757,0.0317 -0.172254,0.0496 0.111619,-0.35002 0.221862,-0.69867 0.325215,-1.04869 0.290766,-0.0482 0.584288,-0.0841 0.881944,-0.0978 0.03172,0.226 0.06615,0.45062 0.100598,0.68075 z m -0.644924,0.99495 c -0.312815,0.10886 -0.624251,0.226 -0.937066,0.34175 0.06201,-0.20395 0.125402,-0.40514 0.188793,-0.60634 0.107488,-0.0248 0.216351,-0.0496 0.32246,-0.0744 0.16123,-0.0386 0.327974,-0.0772 0.494718,-0.11575 -0.0193,0.15158 -0.04272,0.30316 -0.06891,0.45475 z m 0.763436,-0.23978 c -0.187413,0.0496 -0.374826,0.10886 -0.559484,0.1695 0.0055,-0.14194 0.0096,-0.2825 0.0096,-0.42444 0.163989,-0.0413 0.326595,-0.0909 0.48507,-0.14745 0.02205,0.13367 0.0441,0.26734 0.06477,0.40239 z m 0.292142,1.77353 c -0.272852,0.0152 -0.545701,0.04 -0.817178,0.0786 0.06339,-0.0496 0.125402,-0.0992 0.184658,-0.15572 0.05099,-0.0496 -0.02618,-0.12402 -0.07579,-0.0772 -0.115757,0.10887 -0.23978,0.19706 -0.369316,0.27423 -0.01792,0.004 -0.03583,0.008 -0.05374,0.008 0.02205,-0.0648 0.04272,-0.13092 0.06201,-0.19844 0.297656,-0.113 0.589802,-0.23978 0.880565,-0.37758 0.124026,-0.0593 0.01517,-0.24943 -0.110243,-0.18604 -0.234266,0.11576 -0.471287,0.22876 -0.711066,0.33073 0.06615,-0.29214 0.107488,-0.60358 0.133671,-0.91364 0.214972,-0.0744 0.427189,-0.15158 0.636651,-0.23289 0.07993,0.4837 0.159854,0.96739 0.239779,1.4497 z m -3.901225,1.30914 c 0.05512,0.0992 0.205328,0.17363 0.319705,0.12678 1.44556,-0.56362 2.867696,-0.70831 4.404209,-0.80064 0.416168,-0.0248 0.418923,-0.63114 0,-0.64906 -0.04547,0 -0.09095,0 -0.136427,0 -0.09508,-0.56361 -0.187413,-1.12861 -0.283873,-1.69636 0.01655,-0.007 0.03168,-0.011 0.04823,-0.0179 0.119892,-0.0524 0.02755,-0.21911 -0.08268,-0.19706 -0.0014,0 -0.0028,0 -0.0028,0 -0.03172,-0.18328 -0.06339,-0.36794 -0.09508,-0.54709 0.06477,-0.0427 0.129532,-0.0882 0.190168,-0.14193 0.07579,-0.0593 -0.0083,-0.16123 -0.08819,-0.14745 -0.04961,0.007 -0.09922,0.0207 -0.14745,0.0317 -0.05374,-0.29353 -0.108864,-0.58981 -0.166744,-0.88195 -0.02618,-0.13091 -0.170875,-0.23702 -0.301791,-0.22875 -1.43316,0.0909 -2.71611,0.68075 -4.101041,0.99081 -0.231511,0.0524 -0.128158,0.38447 0.09509,0.34864 0.527788,-0.0841 1.041795,-0.21084 1.557183,-0.33487 -0.130916,0.39826 -0.286632,0.791 -0.47267,1.16858 -0.242535,0.0634 -0.48369,0.12954 -0.724845,0.20395 -0.08819,0.0248 -0.05099,0.16261 0.03858,0.1378 0.192927,-0.0496 0.38723,-0.0951 0.580154,-0.14193 -0.147451,0.27974 -0.311436,0.55121 -0.494715,0.81166 -0.04272,0.011 -0.08544,0.022 -0.128157,0.0289 -0.09371,0.0138 -0.07717,0.12678 -0.0096,0.16123 -0.02067,0.0289 -0.03996,0.0565 -0.05925,0.0813 -0.08406,0.11025 0.106108,0.226 0.186034,0.11025 0.04823,-0.0703 0.0937,-0.14469 0.139181,-0.21497 0.429948,-0.0744 0.86541,-0.16675 1.300868,-0.27975 -0.103353,0.31144 -0.198437,0.62425 -0.276987,0.94534 -0.202568,0.0317 -0.407899,0.0565 -0.615982,0.0634 -0.09233,0.004 -0.0937,0.14469 0,0.14194 0.195683,0 0.388606,-0.0179 0.580154,-0.0427 -0.01379,0.0565 -0.02618,0.11714 -0.03858,0.17639 -0.283877,0.0882 -0.563619,0.18742 -0.839227,0.29628 -0.542946,-1.04455 -0.77997,-2.20761 -1.546158,-3.13641 -0.08131,-0.0978 -0.226,0.0248 -0.169499,0.13091 0.596692,1.09692 0.745518,2.38814 1.34221,3.50297"
         id="path2900" />
      <path
         style="fill:#343a40;fill-opacity:1;fill-rule:nonzero;stroke:none;stroke-width:0.352778"
         d="m -93.353164,-183.06754 c 0.114378,0.0786 0.2384,0.14469 0.374826,0.20119 -0.155716,0.25356 -0.282497,0.52642 -0.363802,0.81167 -0.103353,-0.0289 -0.205327,-0.0565 -0.30868,-0.0882 -0.02205,-0.007 -0.0303,0.0276 -0.0096,0.0358 0.101974,0.0317 0.203948,0.0593 0.305925,0.0882 -0.07579,0.27836 -0.108867,0.56086 -0.08682,0.84611 -0.137802,-0.0496 -0.275608,-0.0992 -0.412034,-0.15158 -0.05788,-0.0221 -0.09646,0.0744 -0.04272,0.0992 0.157095,0.0772 0.31557,0.14331 0.472666,0.21084 0.01101,0.0703 0.02067,0.14193 0.03859,0.21222 0.05099,0.19706 0.356913,0.11575 0.314191,-0.0703 0.02067,0.007 0.03996,0.0138 0.06064,0.0207 -0.07304,0.12678 -0.165365,0.24667 -0.272853,0.35967 -0.425813,-0.0882 -0.85025,-0.18053 -1.274684,-0.26872 0.482314,-0.72899 0.939821,-1.46348 1.204404,-2.30684 z m 0.31006,-3.27008 c 0.500228,-0.50436 0.9412,-0.49748 1.291219,-0.23978 -0.0069,0.011 -0.01242,0.0248 -0.01792,0.0386 -0.126777,0.28663 0.194303,0.53606 0.403765,0.3955 0.170879,0.27561 0.297656,0.61323 0.369316,0.94534 0.213596,0.98805 -0.458886,1.67982 -1.406976,1.7501 -0.458887,0.0345 -0.817178,-0.11024 -1.081762,-0.35967 -0.09233,-0.36793 -0.286632,-0.70969 -0.261828,-1.13274 0.0303,-0.52641 0.343133,-1.03077 0.70418,-1.39733 z m 3.10334,-1.26642 c -0.05236,0.0992 -0.101974,0.20533 -0.150206,0.3073 -0.05099,0 -0.100594,-0.004 -0.151585,-0.004 -0.07028,0 -0.07028,0.11024 0,0.11024 0.03447,0 0.06753,0 0.100598,0 -0.106108,0.23564 -0.203947,0.47266 -0.297656,0.7152 -0.104729,-0.23289 -0.235645,-0.45062 -0.398254,-0.64217 0.07579,-0.16123 0.14883,-0.32383 0.21911,-0.49333 0.225997,0 0.453372,0.003 0.677993,0.007 z m -0.150206,-1.51722 c 0.230135,0.21911 0.456131,0.44097 0.676618,0.67111 -0.16812,0.22461 -0.31695,0.46164 -0.453376,0.70831 -0.232887,0.004 -0.467152,0.004 -0.700042,0.007 0.184658,-0.45062 0.347264,-0.9164 0.4768,-1.38631 z m 6.293503,8.57966 c -0.47129,-0.2508 -0.999081,-0.41203 -1.543403,-0.52227 0.02205,-0.28526 0.05099,-0.56775 0.08544,-0.85301 0.318329,-0.007 0.62701,-0.0358 0.920531,-0.0882 0.2384,0.33073 0.47818,0.6587 0.719335,0.98805 -0.0689,0.15848 -0.128157,0.31695 -0.181899,0.47542 z m -0.139185,0.50437 c -0.474045,-0.0951 -0.952221,-0.16261 -1.43316,-0.21498 0.0028,-0.16536 0.0028,-0.33486 0.0083,-0.50022 0.496094,0.12677 0.989433,0.28111 1.485526,0.46439 -0.02205,0.0854 -0.0441,0.16675 -0.06063,0.25081 z m 0.886079,0.69591 c 0.01379,0.007 0.02618,0.007 0.03859,0.01 -0.0028,0.14469 -0.0055,0.29352 -0.0096,0.43822 -0.253559,-0.0386 -0.508494,-0.0785 -0.762053,-0.113 -0.0248,-0.17639 -0.03168,-0.35278 -0.02618,-0.52917 0.254938,0.0565 0.507118,0.12264 0.759298,0.1943 z m -5.356433,-0.26183 c -0.94258,-0.1378 -1.879646,-0.29904 -2.815333,-0.47543 0.05926,-0.0854 0.115757,-0.16949 0.172255,-0.25769 0.945335,0.16537 1.907205,0.24667 2.874588,0.31006 -0.0014,0.003 -0.0014,0.011 -0.0028,0.0138 -0.02342,0.0923 0.119888,0.13092 0.137802,0.0386 0.0041,-0.0138 0.0041,-0.0276 0.0069,-0.0413 0.187414,0.01 0.373451,0.0248 0.560864,0.0345 -0.02205,0.13366 -0.04548,0.26458 -0.06615,0.39549 -0.01379,0.0909 0.125402,0.13092 0.139182,0.0386 0.0193,-0.13781 0.04134,-0.27561 0.06339,-0.41204 0.03306,0.0703 0.146072,0.0703 0.16812,0 0.493339,0.0344 0.988053,0.073 1.480012,0.12678 0.0055,0.0979 0.01379,0.19706 0.03583,0.29628 0.02205,0.10611 0.183279,0.10198 0.206707,0 0.02205,-0.0882 0.03447,-0.17639 0.04548,-0.26458 0.46991,0.0565 0.938441,0.12678 1.401462,0.226 -0.01238,0.17638 -0.01517,0.35553 0.0014,0.53881 -1.467612,-0.19706 -2.944869,-0.35278 -4.409722,-0.56775 z m -2.947624,-0.78962 c -0.05374,0.0841 -0.111623,0.1695 -0.16812,0.25356 -0.522277,-0.0992 -1.043174,-0.20395 -1.565451,-0.31419 0.08957,-0.10887 0.165364,-0.226 0.227375,-0.34589 0.494715,0.17363 0.997698,0.30317 1.506196,0.40652 z m -1.329807,-1.44694 c 0.09646,0.0248 0.194303,0.0496 0.292143,0.0703 -0.08957,0.23014 -0.18052,0.46303 -0.265959,0.69178 -0.03306,0.0841 0.111618,0.12678 0.137802,0.0386 0.07028,-0.23564 0.136426,-0.47542 0.202572,-0.7152 0.516766,0.10473 1.03904,0.18604 1.564075,0.25356 0,0 0,0.003 0,0.003 -0.137805,0.28663 -0.28939,0.565 -0.449241,0.84336 -0.531922,-0.0772 -1.058333,-0.17639 -1.576476,-0.31695 0.104729,-0.27147 0.137802,-0.56775 0.09508,-0.86816 z m 1.358745,-1.0473 c 0.329353,0.15158 0.669728,0.27422 1.016991,0.37344 -0.197058,0.30041 -0.338994,0.59945 -0.420299,0.91364 -0.526411,-0.0524 -1.051444,-0.12264 -1.570965,-0.21911 0.08268,-0.30316 0.172254,-0.6022 0.271473,-0.89572 0.254938,-0.0138 0.490583,-0.0744 0.7028,-0.17225 z m 3.242525,1.66191 c 0.241156,0.0275 0.47818,0.0551 0.713825,0.0882 -0.0083,0.20395 -0.01101,0.4079 -0.0055,0.61323 -0.0083,0.0455 -0.01655,0.0882 -0.0248,0.13091 -0.197061,-0.007 -0.39274,-0.0152 -0.589802,-0.0248 0.01242,-0.27836 -0.0193,-0.54708 -0.0937,-0.80753 z m -0.486448,-0.0496 c 0.133671,0.01 0.265962,0.0275 0.398254,0.0386 0.06477,0.26459 0.08544,0.53193 0.06063,0.81443 -0.260449,-0.01 -0.519518,-0.0248 -0.778591,-0.0345 0.112998,-0.27285 0.217731,-0.54433 0.319705,-0.81855 z m -1.149283,-0.11024 c 0.350022,0.0358 0.700041,0.0675 1.051443,0.0992 -0.106108,0.2756 -0.216351,0.54983 -0.334864,0.8213 -0.358291,-0.0165 -0.716579,-0.0386 -1.073492,-0.0703 0.128157,-0.27423 0.24529,-0.56087 0.356913,-0.85025 z m 1.813496,-2.10151 c -0.385851,0.003 -0.770322,0.003 -1.154793,0.007 0.114377,-0.45889 0.209462,-0.92053 0.292142,-1.38355 0.39412,0.113 0.811664,0.20533 1.236102,0.26182 -0.128157,0.36932 -0.252184,0.74001 -0.373451,1.11484 z m 0.07304,0 c 0.117133,-0.37069 0.235642,-0.74139 0.356909,-1.10795 0.195682,0.0248 0.391365,0.0414 0.585668,0.0496 -0.05788,0.35277 -0.122647,0.70555 -0.183279,1.05006 -0.253559,0.004 -0.505739,0.008 -0.759298,0.008 z m 0.573264,1.16306 c -0.07717,0 -0.152964,0 -0.227379,-0.007 -0.234266,-0.01 -0.468532,-0.0248 -0.704176,-0.0413 0.103353,-0.31833 0.205327,-0.63528 0.305925,-0.9536 0.260449,0.004 0.520897,0.004 0.781346,0.007 -0.05788,0.33211 -0.111619,0.66421 -0.155716,0.99494 z m 0.126778,0.004 c 0.03721,-0.33211 0.08406,-0.66697 0.133671,-0.99908 0.112998,0 0.224621,0 0.336239,0.004 -0.108863,0.32797 -0.208082,0.66008 -0.299032,0.99494 -0.05788,0 -0.114377,0 -0.170878,0 z m -0.0303,0.30041 c 0.03859,0.007 0.07717,0.01 0.115757,0.0138 -0.05788,0.22187 -0.111622,0.44787 -0.16123,0.67662 0.0083,-0.23289 0.02343,-0.46164 0.04547,-0.6904 z m -1.19338,0.14745 c 0.0303,-0.0923 0.05926,-0.18052 0.08819,-0.26872 0.05512,0.004 0.110244,0.011 0.165365,0.0179 0.257694,0.0289 0.529167,0.0606 0.806154,0.0882 -0.02755,0.23702 -0.04961,0.47266 -0.06339,0.71244 -0.110243,-0.01 -0.219107,-0.0207 -0.326595,-0.0317 -0.148829,-0.01 -0.297656,-0.0248 -0.447861,-0.0344 -0.05788,-0.16675 -0.132292,-0.32522 -0.221866,-0.4837 z m -0.0248,0.0675 c 0.06615,0.13367 0.121267,0.27147 0.165364,0.40927 -0.100598,-0.011 -0.201192,-0.0179 -0.30317,-0.0248 0.04548,-0.12677 0.09371,-0.25493 0.137806,-0.38447 z m -0.719335,-1.52825 c 0.380336,0.004 0.759297,0.004 1.141014,0.007 -0.10473,0.31419 -0.209462,0.63252 -0.31695,0.94534 -0.352778,-0.0276 -0.706931,-0.0661 -1.056954,-0.12679 0.08268,-0.27147 0.16123,-0.54708 0.23289,-0.82544 z m -0.297657,1.03077 c 0.344509,0.0634 0.694532,0.10887 1.043175,0.15159 -0.02067,0.0592 -0.04134,0.11989 -0.06201,0.17914 -0.03306,-0.0524 -0.06615,-0.10886 -0.103354,-0.16536 -0.01242,-0.0179 -0.0441,0 -0.03171,0.0179 0.04134,0.0703 0.07855,0.1378 0.115757,0.20395 -0.05788,0.16261 -0.119892,0.32521 -0.180524,0.48782 -0.351398,-0.0289 -0.704176,-0.0537 -1.056954,-0.0813 0.09784,-0.26183 0.190169,-0.52641 0.275608,-0.79375 z m -0.629764,-0.1378 c 0.07028,0.0179 0.14056,0.0344 0.210841,0.0524 -0.09095,0.28249 -0.177768,0.56499 -0.259073,0.84749 -0.103353,-0.007 -0.206707,-0.0179 -0.31006,-0.0248 0.129536,-0.28663 0.249428,-0.57602 0.358292,-0.87506 z m 0.768946,-2.58934 c 0.08682,0.0345 0.175009,0.0662 0.265959,0.0951 -0.228752,0.79375 -0.504359,1.56958 -0.760677,2.34956 -0.0689,-0.0138 -0.137802,-0.0289 -0.205327,-0.0427 0.275607,-0.77997 0.497473,-1.59026 0.700045,-2.40193 z m 0.239776,-0.98391 c 0.07304,-0.30455 0.144695,-0.60083 0.21911,-0.89297 0.07441,0.0358 0.147451,0.0772 0.221862,0.12402 -0.0372,0.25632 -0.08268,0.51125 -0.136423,0.76068 -0.101977,0.004 -0.202572,0.004 -0.304549,0.008 z m 0.281121,0.0978 c -0.06753,0.29628 -0.143316,0.5898 -0.226,0.88194 -0.09233,-0.0207 -0.183278,-0.0455 -0.275607,-0.073 0.06615,-0.27284 0.133671,-0.54432 0.197061,-0.81166 0.101974,0 0.202572,0.003 0.304546,0.003 z m -1.872752,5.33025 c -0.02755,-0.14056 -0.04823,-0.28112 -0.05237,-0.41617 0.07993,-0.15158 0.157096,-0.30592 0.228756,-0.46164 0.108863,0.0138 0.217727,0.0248 0.326594,0.0358 -0.07993,0.28938 -0.152964,0.5774 -0.214975,0.87092 -0.09646,-0.007 -0.192924,-0.0179 -0.288008,-0.0289 z m -0.191548,-0.15848 c 0.0028,0.0469 0.0083,0.0951 0.01517,0.14194 -0.0303,-0.007 -0.06064,-0.007 -0.09095,-0.0152 0.02618,-0.0386 0.05099,-0.0799 0.07579,-0.12678 z m 3.603569,0.35967 c -0.0069,-0.10197 -0.01101,-0.20808 -0.01517,-0.31005 0.02618,-0.13781 0.05237,-0.27148 0.07993,-0.40928 0.522276,0.0772 1.032153,0.17639 1.539271,0.29627 -0.03171,0.17364 -0.06063,0.35003 -0.07855,0.52641 -0.505739,-0.0496 -1.015616,-0.0785 -1.525489,-0.10335 z m 1.659159,-0.71933 c -0.518142,-0.0951 -1.047309,-0.15159 -1.554427,-0.19706 0.04823,-0.23289 0.100595,-0.46578 0.155716,-0.69591 0.516767,0.0496 1.045934,0.0854 1.558562,0.0786 -0.05099,0.24667 -0.100598,0.49058 -0.146071,0.73725 -0.0041,0.0248 -0.0083,0.0496 -0.01379,0.0772 z m 0.399631,-1.87965 c -0.05237,0.21498 -0.100598,0.42995 -0.14883,0.64906 -0.519518,-0.0152 -1.048685,0.01 -1.565452,0.0138 0.08819,-0.34175 0.186038,-0.68075 0.293522,-1.01561 0.0248,-0.0221 0.03447,-0.0565 0.02893,-0.0882 0.114374,-0.35003 0.2384,-0.69867 0.377581,-1.0418 0.01655,-0.0413 -0.05237,-0.0593 -0.07028,-0.0166 -0.136426,0.32384 -0.260449,0.65595 -0.374826,0.98668 -0.0055,0 -0.0096,-0.003 -0.01655,-0.003 -0.119888,0.003 -0.2384,0.003 -0.356908,0.003 0.05374,-0.34451 0.107484,-0.69454 0.158471,-1.04731 0.21911,0.011 0.432706,0.011 0.644923,0 0.553971,0.75103 1.096917,1.51033 1.641243,2.26549 -0.219107,-0.0289 -0.443728,-0.0469 -0.671104,-0.0565 0.0303,-0.21221 0.06063,-0.42719 0.0937,-0.64216 0.0041,-0.0221 -0.02893,-0.0317 -0.03447,-0.007 z m -1.260906,-1.87 c -0.327974,-0.0138 -0.654568,-0.0138 -0.982542,-0.022 0.09922,-0.288 0.202572,-0.57463 0.31006,-0.85989 0.227375,0.29214 0.451996,0.58567 0.672482,0.88194 z m -0.7028,-0.92052 c -0.117133,0.29627 -0.228755,0.59531 -0.334864,0.89572 -0.436838,-0.007 -0.87092,-0.0317 -1.306378,-0.10886 0.05374,-0.31144 0.101974,-0.61737 0.141936,-0.92467 0.377582,0.007 0.755167,0.011 1.132749,0.0179 0.0937,0 0.0937,-0.14469 0,-0.14469 -0.372072,0.003 -0.744143,0.01 -1.11759,0.0165 0.03306,-0.25356 0.05926,-0.50712 0.08268,-0.75378 0.0248,-0.0221 0.03306,-0.0675 -0.0041,-0.0923 -0.08819,-0.0565 -0.176389,-0.10198 -0.263208,-0.14745 0.04961,-0.19844 0.09922,-0.39274 0.152965,-0.58291 0.526408,0.5898 1.028015,1.20027 1.51584,1.82452 z m -2.286166,-1.97198 c -0.119888,0 -0.239776,0.003 -0.359668,0.003 0.114378,-0.22876 0.241159,-0.44787 0.383096,-0.66284 0.221865,0.23289 0.440972,0.46577 0.654569,0.70142 -0.06339,0.21222 -0.125402,0.4203 -0.184658,0.63252 -0.338999,-0.14469 -0.680752,-0.20533 -1.058334,-0.22324 0.0441,-0.10473 0.09095,-0.20808 0.140561,-0.31006 0.140561,0 0.282497,0 0.424434,0.004 0.09233,0 0.09233,-0.1447 0,-0.1447 z m -0.738628,2.30684 c -0.04547,-0.25769 -0.114378,-0.5333 -0.210838,-0.79375 0.103353,-0.32522 0.214972,-0.64217 0.341753,-0.95636 0.383092,0.0138 0.72898,0.0744 1.070734,0.22187 -0.09095,0.31832 -0.179144,0.63527 -0.267339,0.9536 -0.208082,0.003 -0.414789,0.007 -0.621495,0.01 -0.04685,0 -0.04685,0.0703 0,0.0703 0.198437,0.004 0.396875,0.008 0.595312,0.011 -0.303166,1.09003 -0.615982,2.1773 -1.018371,3.22461 -0.30179,-0.0813 -0.595312,-0.18053 -0.88332,-0.30317 0.764812,-0.4768 1.165818,-1.47175 0.993564,-2.43775 z m -2.276518,2.71611 c 0.124023,0.0138 0.242535,0.0138 0.358288,0.007 -0.09784,0.29628 -0.206703,0.5898 -0.32108,0.88195 -0.107488,-0.0207 -0.216352,-0.0427 -0.32384,-0.0634 -0.01379,-0.0813 -0.03306,-0.16261 -0.05926,-0.24392 -0.02067,-0.0661 -0.122647,-0.0386 -0.103353,0.0289 0.01655,0.0634 0.02755,0.12402 0.03721,0.18741 -0.09646,-0.0221 -0.192927,-0.0469 -0.289387,-0.0717 0.06201,-0.28111 0.172255,-0.55259 0.310057,-0.80753 0.122646,0.0358 0.253559,0.0634 0.391364,0.0813 z m -0.712445,1.65502 c -0.06477,-0.29627 -0.06064,-0.59255 -0.0014,-0.88194 0.103353,0.0317 0.208082,0.0565 0.311436,0.0813 0.03996,0.29904 -0.0041,0.58843 -0.122644,0.85715 -0.06201,-0.0221 -0.125402,-0.0386 -0.187413,-0.0565 z m -2.126333,0.39827 c -0.16674,0.21497 -0.141937,0.57877 0.197062,0.64905 0.977028,0.2012 1.981616,0.42306 2.999987,0.63528 -0.02755,0.0951 0.08819,0.19706 0.173633,0.10886 0.0193,-0.0207 0.03583,-0.0427 0.05374,-0.0634 3.205317,0.65595 6.549817,1.18236 9.693123,0.66008 0.03443,-0.004 0.03443,-0.0634 0,-0.0675 -0.276987,-0.0496 -0.553974,-0.0951 -0.830958,-0.13781 -0.0028,-0.14745 -0.0055,-0.29903 -0.0096,-0.44786 0.226,-0.0138 0.297656,-0.38447 0.03997,-0.45888 -0.276987,-0.0799 -0.556729,-0.15159 -0.836472,-0.21085 0.01242,-0.0744 0.0303,-0.14882 0.04823,-0.22186 0.09233,0.0344 0.183279,0.0662 0.275608,0.10473 0.100598,0.04 0.146071,-0.10886 0.0689,-0.16536 -0.09095,-0.0634 -0.184655,-0.12403 -0.281118,-0.17639 0.04272,-0.1378 0.08819,-0.27561 0.141936,-0.41204 0.559485,0.76068 1.128614,1.50896 1.723927,2.23656 0.07993,0.0951 0.23151,-0.0289 0.169499,-0.13091 -2.38125,-4.00045 -4.748721,-8.12492 -8.269609,-11.25031 0.03721,-0.21497 0.06891,-0.42994 0.08819,-0.64216 0.0014,-0.0179 -0.02618,-0.0248 -0.03443,-0.011 -0.08682,0.16674 -0.170879,0.339 -0.254939,0.5085 -0.03858,-0.0138 -0.07717,-0.0248 -0.115753,-0.0248 -4.090018,-1.23748 -8.833228,-1.35048 -12.395456,-3.91914 -0.0303,-0.0207 -0.0689,0.0207 -0.0496,0.0496 1.09692,1.66467 3.384462,2.3275 5.193828,2.89939 2.282031,0.71933 4.688085,0.99494 6.98252,1.67983 0.01101,0.01 0.02067,0.0165 0.0303,0.0275 -0.272848,0.56775 -0.538811,1.14377 -0.796505,1.72117 -0.09508,0 -0.190168,0 -0.285252,0 -0.0689,0 -0.0689,0.11024 0,0.11024 0.07717,0 0.155716,0 0.232886,0 -0.01379,0.0317 -0.02893,0.0661 -0.04272,0.0978 -0.06615,-0.0345 -0.133671,-0.0703 -0.205327,-0.0951 -0.717959,-0.26734 -1.41938,0.0221 -1.982996,0.4768 -0.604961,0.48645 -1.014236,1.30914 -1.080382,2.07808 -0.04961,0.57878 0.06477,1.40009 0.566371,1.7322 -0.179144,0.28525 -0.205327,0.7152 -0.312812,1.02663 -0.113002,0.33073 -0.242534,0.65871 -0.37345,0.98393 -1.761134,-4.83278 -6.213581,-8.08909 -8.275121,-12.78407 -0.0262,-0.0565 -0.11576,-0.0152 -0.0992,0.0413 1.4621,5.0767 6.137786,8.35092 7.812101,13.31048 0.01101,0.0317 0.0248,0.0565 0.03996,0.0813"
         id="path2902" />
      <path
         style="fill:#343a40;fill-opacity:1;fill-rule:nonzero;stroke:none;stroke-width:0.352778"
         d="m -113.74124,-186.84198 c -0.0606,-1.5062 0.0551,-2.98484 0.34313,-4.40559 -0.33348,1.42764 -0.46164,2.91041 -0.34313,4.40559"
         id="path2904" />
      <path
         style="fill:#343a40;fill-opacity:1;fill-rule:nonzero;stroke:none;stroke-width:0.352778"
         d="m -113.6999,-186.39412 c -0.0165,-0.14745 -0.0303,-0.29904 -0.0413,-0.44786 0.005,0.14882 0.0124,0.30041 0.0221,0.44786 0,0.0138 0.022,0.0138 0.0193,0"
         id="path2906" />
      <path
         style="fill:#343a40;fill-opacity:1;fill-rule:nonzero;stroke:none;stroke-width:0.352778"
         d="m -111.15604,-198.34585 c -0.008,0.011 0.006,0.0248 0.0138,0.0138 1.94027,-2.22966 4.46897,-3.95772 7.22092,-5.14284 -1.53376,0.8351 -2.96416,1.86587 -4.25125,3.04409 -2.76986,2.53284 -4.51859,5.69681 -5.22552,9.18325 0.80477,-3.43959 2.80568,-6.58703 5.44049,-8.96828 1.88378,-1.70049 4.12585,-2.98069 6.50296,-3.85161 1.15618,-0.42719 2.364717,-0.7345 3.573256,-0.97014 0.800643,-0.15572 1.613683,-0.19431 2.419836,-0.27285 1.317403,-0.0207 2.638944,0.0606 3.941188,0.21635 2.487362,0.29214 4.821756,1.09278 7.209896,1.79145 0.175013,0.0496 0.286632,-0.20808 0.124026,-0.29628 -4.18786,-2.28203 -9.549807,-2.81809 -14.214465,-2.14836 -2.444637,0.34864 -4.812107,1.15342 -6.988037,2.31373 -2.28616,1.22094 -4.12309,3.12538 -5.76708,5.08771"
         id="path2908" />
      <path
         style="fill:#343a40;fill-opacity:1;fill-rule:nonzero;stroke:none;stroke-width:0.352778"
         d="m -109.0187,-185.94626 c 0.14469,0.113 0.28801,0.23013 0.42995,0.34313 -0.12541,0.26045 -0.23427,0.53192 -0.33073,0.81029 -0.0138,-0.0207 -0.0262,-0.0455 -0.0358,-0.0661 0.008,0.0276 0.022,0.0524 0.0317,0.0813 -0.18053,0.52503 -0.31419,1.07211 -0.42582,1.60817 -0.16123,-0.2012 -0.30454,-0.4203 -0.42994,-0.65319 -0.007,-0.0248 -0.0124,-0.0524 -0.0193,-0.0813 0.30041,-0.66559 0.59945,-1.33256 0.77997,-2.04225 z m 0.97152,-0.41617 c 0.68626,-0.0882 1.36563,-0.24667 2.02709,-0.44373 -0.091,0.46165 -0.10611,0.92053 -0.0882,1.38218 -0.18189,0.51125 -0.35415,1.01561 -0.50022,1.52411 -0.26734,-0.32798 -0.56224,-0.62426 -0.87368,-0.90262 0.20119,-0.52641 0.41617,-1.04869 0.6339,-1.58061 0.0166,-0.0386 -0.0482,-0.0634 -0.0648,-0.0289 -0.22462,0.49472 -0.46578,0.99495 -0.69729,1.49931 -0.26596,-0.22876 -0.54432,-0.44373 -0.8282,-0.65595 0.10611,-0.27561 0.23289,-0.54019 0.39137,-0.79375 z m 2.13596,3.98667 c -0.0551,-0.0317 -0.1199,-0.0427 -0.19431,-0.0289 -0.21635,0.0469 -0.43132,0.0923 -0.64492,0.13781 0.0772,-1.01148 0.34864,-1.96509 0.65319,-2.93522 0.0565,0.93568 0.226,1.87688 0.18604,2.82635 z m -2.20211,-1.35462 c -0.16123,0.42031 -0.30179,0.84337 -0.40928,1.27331 -0.21359,-0.11989 -0.40376,-0.27147 -0.57877,-0.44097 0.12677,-0.51125 0.2191,-1.03353 0.33624,-1.54478 0.16399,0.2825 0.38447,0.51814 0.65181,0.71244 z m 0.0841,-0.21221 c -0.12954,-0.0909 -0.25631,-0.19017 -0.37896,-0.28939 -0.0937,-0.0772 -0.22049,-0.19017 -0.33349,-0.31695 0.0758,-0.32522 0.16537,-0.64492 0.27837,-0.95222 0.27561,0.22186 0.5457,0.45475 0.80339,0.69866 -0.12815,0.28525 -0.25356,0.57051 -0.36931,0.8599 z m 1.28295,0.15572 c 0.0276,0.0358 0.062,0.0455 0.0937,0.0386 -0.13643,0.50161 -0.24391,1.00597 -0.29903,1.52824 -0.48921,0.10887 -0.9729,0.23289 -1.45108,0.38034 0.0234,-0.10886 0.0469,-0.21911 0.073,-0.32797 0.11438,0.0496 0.23288,0.0951 0.35691,0.12678 0.11162,0.0317 0.15985,-0.14056 0.0482,-0.17226 -0.12678,-0.0317 -0.24529,-0.0785 -0.36104,-0.12677 0.10886,-0.4272 0.23288,-0.8475 0.37069,-1.25953 0.18052,0.10886 0.37482,0.20395 0.58153,0.28112 0.0951,0.0358 0.16261,-0.12265 0.0703,-0.16537 -0.20257,-0.0909 -0.3955,-0.20394 -0.58153,-0.32797 0.10059,-0.28939 0.20533,-0.57877 0.31419,-0.86816 0.2825,0.27561 0.54708,0.57188 0.7841,0.89297 z m -2.56039,1.59852 c 0.0592,-0.17363 0.113,-0.35002 0.15985,-0.52641 0.17639,0.16674 0.37207,0.31006 0.58567,0.43132 -0.0386,0.17226 -0.073,0.34865 -0.0992,0.52504 -0.14056,0.0455 -0.2825,0.0951 -0.42168,0.14745 -0.0813,-0.19293 -0.15572,-0.38723 -0.22462,-0.5774 z m -0.35002,-1.14377 c 0.0827,0.12678 0.17087,0.24667 0.26734,0.35967 -0.0234,0.11299 -0.0455,0.22599 -0.0675,0.33899 -0.073,-0.23289 -0.13918,-0.46577 -0.19981,-0.69866 z m -0.71658,0.3073 c -0.051,0.11989 0.11575,0.19017 0.16398,0.0703 0.0524,-0.13367 0.10749,-0.26458 0.16399,-0.3955 0.13091,0.72761 0.30317,1.44694 0.55811,2.14836 0.0468,0.12816 0.18465,0.24116 0.32935,0.18742 0.71796,-0.26459 1.44694,-0.45889 2.18694,-0.62012 0.0496,0.0634 0.17501,0.0482 0.19293,-0.0469 0.27285,-0.0565 0.54984,-0.113 0.82544,-0.16537 0.0441,-0.011 0.0785,-0.0248 0.10749,-0.0455 0.17088,0.15434 0.54295,0.0772 0.56637,-0.23289 0.1254,-1.69361 -0.56637,-3.38722 -0.0386,-5.04224 0.0661,-0.20809 -0.15296,-0.43271 -0.3638,-0.36243 -1.38907,0.46164 -2.75883,0.83923 -4.20302,1.0859 -0.0648,0.011 -0.04,0.0992 0.0152,0.10611 0.57326,0.0675 1.1479,0.0524 1.71841,-0.011 -0.15434,0.21635 -0.28938,0.44924 -0.40928,0.69177 -0.14882,-0.10886 -0.29765,-0.2191 -0.44648,-0.32383 -10e-4,0 -0.003,0 -0.004,0 0.0165,-0.0634 0.0331,-0.12403 0.0469,-0.18328 0.0152,-0.0675 -0.0882,-0.0992 -0.10336,-0.0289 -0.17087,0.71658 -0.47404,1.37942 -0.78686,2.03949 -0.13366,-0.60771 -0.24529,-1.22093 -0.35553,-1.83416 -0.0179,-0.10335 -0.18741,-0.0786 -0.17639,0.0207 0.0813,0.77997 0.16399,1.55856 0.28939,2.3275 -0.0951,0.20533 -0.18879,0.40653 -0.27698,0.61461"
         id="path2910" />
      <path
         style="fill:#343a40;fill-opacity:1;fill-rule:nonzero;stroke:none;stroke-width:0.352778"
         d="m -108.95531,-184.85899 c -0.0179,-0.0537 -0.0317,-0.10611 -0.0455,-0.16261 0.007,0.0524 0.0207,0.10611 0.0455,0.16261"
         id="path2912" />
      <path
         style="fill:#343a40;fill-opacity:1;fill-rule:nonzero;stroke:none;stroke-width:0.352778"
         d="m -109.02559,-185.10979 c 0.005,0.0317 0.0179,0.0592 0.0248,0.0882 -0.004,-0.0289 -0.008,-0.0606 -0.006,-0.0923 10e-4,-0.0138 -0.022,-0.01 -0.0193,0.004"
         id="path2914" />
    </g>
  </g>
</svg>
