<?xml version="1.0" encoding="UTF-8" standalone="no"?>
<!-- Created with Inkscape (http://www.inkscape.org/) -->

<svg
   width="70mm"
   height="70mm"
   viewBox="0 0 70 70"
   version="1.1"
   id="svg6668"
   inkscape:version="1.1.1 (3bf5ae0d25, 2021-09-20)"
   sodipodi:docname="shopping.svg"
   xmlns:inkscape="http://www.inkscape.org/namespaces/inkscape"
   xmlns:sodipodi="http://sodipodi.sourceforge.net/DTD/sodipodi-0.dtd"
   xmlns="http://www.w3.org/2000/svg"
   xmlns:svg="http://www.w3.org/2000/svg">
  <sodipodi:namedview
     id="namedview6670"
     pagecolor="#ffffff"
     bordercolor="#666666"
     borderopacity="1.0"
     inkscape:pageshadow="2"
     inkscape:pageopacity="0.0"
     inkscape:pagecheckerboard="0"
     inkscape:document-units="mm"
     showgrid="false"
     fit-margin-top="0"
     fit-margin-left="0"
     fit-margin-right="0"
     fit-margin-bottom="0"
     inkscape:zoom="0.27023919"
     inkscape:cx="-297.88426"
     inkscape:cy="257.17958"
     inkscape:window-width="1920"
     inkscape:window-height="1017"
     inkscape:window-x="-8"
     inkscape:window-y="32"
     inkscape:window-maximized="1"
     inkscape:current-layer="layer1" />
  <defs
     id="defs6665" />
  <g
     inkscape:label="Layer 1"
     inkscape:groupmode="layer"
     id="layer1"
     transform="translate(-70.904051,-78.53608)">
    <path
       style="fill:#343a40;fill-opacity:1;fill-rule:nonzero;stroke:none;stroke-width:0.352778"
       d="m 133.69613,112.36215 c -0.0386,-0.0854 -0.16399,-0.12403 -0.22187,-0.0179 -0.43684,0.79788 -0.93844,1.54478 -1.4993,2.25722 -0.0841,-0.17914 -0.25218,-0.30592 -0.50436,-0.31281 0.17363,-0.82958 0.34864,-1.66192 0.52503,-2.49425 0.25493,-0.27561 0.50436,-0.55811 0.75792,-0.82958 0.64768,-0.68764 1.29398,-1.37528 1.94028,-2.0643 -0.0813,0.29352 -0.16261,0.58291 -0.24254,0.87505 -0.23978,0.86541 -0.49196,1.72944 -0.75516,2.58658 z m -6.05373,9.16533 c -3.12263,0.0207 -6.22184,-0.565 -9.33069,-0.78686 -0.52228,-0.0358 -1.04593,-0.0455 -1.56959,-0.0427 2.08222,-0.17226 4.15754,-0.43684 6.23976,-0.61323 1.03077,-0.0882 2.06292,-0.14194 3.09645,-0.16674 1.0666,-0.0248 2.14836,0.1695 3.16398,-0.20808 -0.0854,0.0951 -0.15986,0.19843 -0.21773,0.31832 -0.0703,0.1447 0.0441,0.29214 0.20257,0.26045 0.28939,-0.0593 0.56224,-0.22187 0.81993,-0.43684 0.1447,-0.0248 0.2701,-0.11989 0.32246,-0.30041 0.38448,-0.3955 0.72347,-0.86816 1.00459,-1.20992 0.17639,-0.2191 0.34313,-0.43684 0.50161,-0.66008 -0.0937,0.24391 -0.18466,0.48369 -0.27974,0.72347 -0.32384,0.80753 -0.82131,1.56683 -0.85301,2.44464 -0.004,0.10611 0.0179,0.19844 0.0551,0.27837 -0.007,0.008 -0.0152,0.0152 -0.022,0.0179 -1.03905,0.16261 -2.04501,0.37482 -3.13367,0.38171 z m -3.12538,8.32197 c -0.011,0 -0.0221,0 -0.0331,0 0.0469,-2.24069 0.0813,-4.6495 1.04042,-6.65041 0.32246,0.0248 0.64354,0.0386 0.966,0.0537 -0.76205,2.17179 -1.54064,4.32842 -1.97335,6.59667 z m 2.69682,3.44647 c 1.06797,0.64217 0.0965,2.38125 -0.42444,3.14331 -1.28709,1.88378 -3.62837,0.54984 -4.68671,-0.83233 -0.339,-0.44511 -0.70693,-1.03353 -0.78961,-1.62747 0.69177,-0.43684 1.55029,-0.75792 2.35231,-0.9412 1.11896,-0.25769 2.52594,-0.35691 3.54845,0.25769 z m -6.22323,4.44142 c -0.53605,-0.4768 -0.84197,-0.92742 -0.97289,-1.35185 0.17225,0.17363 0.3638,0.32108 0.57326,0.43132 1.13826,1.47726 2.6982,2.35231 4.22645,2.43362 -1.37529,0.29627 -2.66926,-0.48645 -3.82682,-1.51309 z m -5.27788,-2.03536 c -10e-4,-0.0703 -0.003,-0.14194 -0.008,-0.21222 0.0648,-0.0138 0.12954,-0.0317 0.19569,-0.0427 0.627,-0.12265 1.35599,-0.0386 1.97335,-0.21773 -0.0303,0.18604 -0.0441,0.37345 -0.0413,0.56086 -0.70143,-0.0813 -1.40698,-0.10611 -2.11943,-0.0882 z m -3.99493,2.74781 c -1.26229,0.45475 -2.89113,-0.0317 -3.70142,-1.00183 -0.20532,-0.3707 -0.34175,-0.75517 -0.38033,-1.12586 -0.051,-0.48232 0.0344,-0.93845 0.21359,-1.35737 0.0276,-0.0469 0.0524,-0.0923 0.0827,-0.1378 0.011,-0.0179 0.01,-0.0317 0.003,-0.0427 0.15434,-0.29904 0.36104,-0.57464 0.6022,-0.81856 1.73357,0.1695 3.6835,0.71658 4.58473,1.88791 -0.0992,0.0703 -0.19706,0.14056 -0.29352,0.21911 -0.25218,0.19293 0.0758,0.6091 0.34176,0.44098 0.0841,-0.0565 0.16812,-0.10611 0.25356,-0.15572 0.073,0.16536 0.13366,0.33899 0.16812,0.52503 -0.3142,0.70555 -0.99908,1.25263 -1.87414,1.56683 z m 6.38031,-3.98942 c -0.0193,-0.011 -0.0386,-0.0179 -0.0593,-0.0248 0.0303,-0.0152 0.0606,-0.0317 0.0896,-0.0496 -0.011,0.0248 -0.0207,0.0496 -0.0303,0.0744 z m -12.55117,-11.97378 c 0.68075,0.10198 1.37115,0.16261 2.05604,0.20395 2.95175,0.18052 5.91867,-0.11162 8.86767,-0.20395 2.80155,-0.0882 5.60999,0.43684 8.39639,0.66697 0.14607,0.011 0.29214,0.0207 0.43959,0.0317 -1.31741,1.64676 -1.64951,4.3987 -1.68258,6.66006 -0.49885,0.0317 -0.99219,0.12402 -1.46624,0.2825 -1.22507,0.41203 -2.15938,1.36563 -2.64307,2.52181 -0.46165,0.37069 -0.85714,0.80064 -1.15342,1.29122 -0.0262,-0.0496 -0.0703,-0.0882 -0.13367,-0.0951 -0.51263,-0.0772 -1.00321,0.18328 -1.49655,0.32108 -0.40928,0.113 -0.82407,0.20533 -1.24437,0.27148 -0.79788,-2.38125 -3.55396,-4.27192 -6.14054,-3.66145 -0.52503,0.12402 -1.01561,0.34589 -1.46348,0.64216 -0.0152,-0.0317 -0.0317,-0.0606 -0.0469,-0.0923 -0.51814,-1.06522 -0.73587,-2.3027 -0.96462,-3.45336 -0.35554,-1.78869 -0.67662,-3.66145 -1.3243,-5.38675 z m 8.21035,-1.644 c -1.27744,0.10198 -2.5535,0.23289 -3.82543,0.29352 -0.38861,0.0207 -0.78962,0.0386 -1.20027,0.0482 0.0193,-0.26045 0.0386,-0.51814 0.051,-0.77859 1.63021,0.31695 3.29213,0.44373 4.97471,0.43684 z m -5.03259,-4.43452 c 2.11391,0.32108 4.26503,0.41616 6.39961,0.42994 0.0179,0.93156 0.04,1.86311 0.0661,2.79467 -2.14009,0.15571 -4.28018,0.18052 -6.38445,-0.0923 0.0193,-1.04318 -0.008,-2.08773 -0.0813,-3.13229 z m -0.6463,-5.15387 c -0.13505,-0.78272 -0.27148,-1.56958 -0.40652,-2.35369 2.41294,0.0358 4.82726,-0.15434 7.24021,-0.15158 0.0234,0.60772 0.0455,1.21405 0.0661,1.82452 0.0565,1.6757 0.0896,3.35139 0.11988,5.02709 -2.18281,0.011 -4.35184,-0.11714 -6.48091,-0.44511 -0.13091,-1.30776 -0.31695,-2.61414 -0.53881,-3.90123 z m 9.01099,-9.81025 c 2.24207,0.31006 4.44555,0.36656 6.68348,0.31695 -0.26045,2.24069 -0.36931,4.50481 -0.52778,6.75928 -2.28204,-0.52504 -4.53513,-1.18925 -6.88331,-1.3367 -0.1254,-0.007 -0.2508,-0.0152 -0.37482,-0.0179 -0.12678,-1.97886 -0.25494,-3.95773 -0.42306,-5.9297 0.5085,0.0703 1.01699,0.14056 1.52549,0.20808 z m -10.51305,-2.910419 c -0.41479,-0.4768 -1.01424,-0.6146 -1.62471,-0.54432 -0.0165,0.004 -0.0289,0.0152 -0.0413,0.0221 -0.11162,-0.17639 -0.24805,-0.34313 -0.3955,-0.50161 3.75791,0.23013 7.51996,0.42306 11.27924,0.63528 0.25356,0.74138 0.65733,1.531 1.20716,2.162139 -0.0275,-0.003 -0.0551,-0.007 -0.0827,-0.01 -0.52227,-0.0717 -1.04868,-0.14469 -1.5751,-0.2191 -0.051,-0.0248 -0.10473,-0.0317 -0.15847,-0.0207 -0.51814,-0.0744 -1.03766,-0.144689 -1.55856,-0.216349 -0.70418,-0.94533 -1.55167,-1.71014 -2.80155,-1.76389 -0.0179,0 -0.0179,0.0289 0,0.0289 0.92328,0.0524 1.76802,0.89297 2.37849,1.67845 -1.04318,-0.13642 -2.09048,-0.26458 -3.14055,-0.37345 -0.68075,-0.50436 -1.42902,-0.9412 -2.12218,-1.40697 -0.0841,-0.0565 -0.19981,0.0565 -0.14056,0.14056 0.30179,0.42306 0.66973,0.81166 1.07763,1.15755 -0.61323,-0.0537 -1.22783,-0.0923 -1.84106,-0.12402 -0.14194,-0.24667 -0.31006,-0.47267 -0.46026,-0.64493 z m 12.60491,-0.19844 c 0.30179,0.23978 0.59118,0.49748 0.87368,0.75517 0.20395,0.18741 0.38171,0.39825 0.53743,0.62425 0.15434,0.22186 0.21773,0.490579 0.40377,0.687639 0.0965,0.10336 0.25356,0.0179 0.26045,-0.10886 0.0317,-0.542949 -0.57051,-1.125859 -0.93983,-1.467609 -0.21084,-0.19017 -0.43959,-0.34176 -0.6835,-0.46578 1.23885,0.0703 2.47909,0.13367 3.71794,0.19431 0.2136,0.1626 0.39412,0.37344 0.54984,0.61046 0.27974,0.4272 0.35554,0.931559 0.69316,1.311899 0.15847,0.17638 0.42305,0.0248 0.43545,-0.18328 0.0372,-0.621499 -0.44648,-1.216809 -0.85438,-1.650889 -0.0152,-0.0179 -0.0331,-0.0317 -0.0482,-0.0496 0.75792,0.0358 1.51584,0.0703 2.27376,0.10611 0.21773,0.007 0.43546,0.0138 0.65457,0.0207 0.11576,0.18328 0.24529,0.35691 0.40101,0.51538 0.28112,0.28526 0.62012,0.56776 1.03629,0.49748 0.12126,-0.0207 0.15296,-0.1695 0.10748,-0.26045 -0.1571,-0.32109 -0.48783,-0.41342 -0.75241,-0.62839 -0.0372,-0.0317 -0.0675,-0.0634 -0.10197,-0.0951 1.19889,0.0413 2.39916,0.0813 3.59806,0.10886 0.01,0.011 0.0207,0.0179 0.0386,0.0179 0.7152,0.0524 1.06109,0.51539 1.33532,1.128619 0.0799,0.17639 0.36656,0.0207 0.26458,-0.155719 -0.25631,-0.44373 -0.5581,-0.80064 -0.97978,-0.96601 0.50849,0.0207 1.02664,0.0524 1.5434,0.0634 0.30041,0.39137 0.31006,0.93156 0.58291,1.340829 -0.10473,0.32384 -0.20671,0.64906 -0.3073,0.9729 -0.0275,-0.0138 -0.0551,-0.0276 -0.0882,-0.0386 -2.45842,-0.76205 -5.03259,-0.74414 -7.58334,-0.66283 -2.85254,0.0923 -5.61275,0.14883 -8.43635,-0.16537 -0.27009,-0.23977 -0.52779,-0.490579 -0.75792,-0.790989 -0.33073,-0.43408 -0.57878,-0.92329 -0.77032,-1.43592 0.13918,0.007 0.27836,0.0179 0.41754,0.0248 0.8599,0.0496 1.71842,0.0992 2.57831,0.14469 z m 15.06334,1.59439 c -0.17364,-0.31005 -0.24805,-0.67661 -0.43822,-0.97978 0.25769,0.003 0.51401,-0.004 0.76895,-0.0152 -0.11301,0.33211 -0.22187,0.66421 -0.33073,0.99494 z m 3.01514,-0.44786 c -0.23426,0.899859 -0.47266,1.802479 -0.7152,2.702339 -0.56362,0.52916 -1.12586,1.05558 -1.68947,1.58474 -0.40515,0.38034 -0.90813,0.76481 -1.34635,1.192 0.20947,-0.89986 0.42582,-1.79558 0.6463,-2.6913 1.04318,-0.92467 2.03261,-1.89205 3.10472,-2.787779 z m -1.56958,5.827729 c -0.0138,0.011 -0.0262,0.0248 -0.0358,0.0468 -0.31144,0.69866 -0.8971,1.21268 -1.49517,1.6688 -0.29904,0.22876 -0.58016,0.47543 -0.88057,0.69729 -0.17363,0.13092 -0.34864,0.23013 -0.48369,0.37758 0.14056,-0.63389 0.27974,-1.26641 0.42306,-1.89756 0.70417,-0.42305 1.24574,-1.19889 1.79558,-1.78869 0.43408,-0.46164 0.86954,-0.92466 1.30363,-1.39044 -0.20809,0.76206 -0.41617,1.52411 -0.62701,2.28617 z m -5.20623,9.05922 c -0.44373,0.0427 -0.88883,0.0854 -1.33532,0.13091 0.0138,-1.17409 0.0317,-2.34955 0.0951,-3.52364 0.7276,-0.0152 1.44142,-0.0992 2.06567,-0.28663 -0.10473,0.44786 -0.20808,0.89986 -0.31005,1.35185 -0.18742,0.2012 -0.36656,0.40928 -0.52779,0.63115 -0.11851,0.1626 0.11713,0.39825 0.27974,0.27836 0.0179,-0.0138 0.0358,-0.0275 0.0537,-0.0413 -0.10886,0.48645 -0.21497,0.97289 -0.32108,1.45934 z m -1.45107,4.28019 c 0.0565,-0.90675 0.0799,-1.81764 0.0951,-2.72438 0.34864,-0.0413 0.69867,-0.0799 1.04731,-0.1199 -0.24116,1.13 -0.47956,2.26137 -0.71796,3.39825 -0.0262,-0.0427 -0.0606,-0.0786 -0.11024,-0.10611 -0.12403,-0.0703 -0.25356,-0.13092 -0.38585,-0.18328 0.0386,-0.0744 0.0648,-0.16261 0.0717,-0.26458 z m -5.08772,0 c 0.011,-0.7345 0.0262,-1.47175 0.0427,-2.20487 1.28019,-0.11299 2.56039,-0.23977 3.83783,-0.37758 -0.0221,0.86403 -0.0179,1.71841 0.0317,2.5604 -1.26366,-0.16537 -2.68304,0.0565 -3.84335,0.13505 -0.0275,0 -0.0551,0.003 -0.0841,0.007 0.008,-0.0386 0.0138,-0.0786 0.0152,-0.1199 z m 1.35737,-8.03672 c 0.71796,0.12678 1.7942,0.29352 2.92695,0.34864 -0.14194,1.2113 -0.26458,2.43775 -0.339,3.66972 -1.2802,0.13367 -2.57004,0.27561 -3.86677,0.40927 0.0413,-1.55305 0.0923,-3.10472 0.15572,-4.65363 0.37344,0.0813 0.74827,0.15847 1.1231,0.226 z m 3.13779,-1.3615 c -1.35324,0.0179 -2.70785,-0.21222 -4.02663,-0.4768 -0.0537,-0.01 -0.10749,-0.0248 -0.16261,-0.0345 0.11576,-2.32475 0.25081,-4.67431 0.0386,-6.99216 0.28663,-0.007 0.57188,-0.0179 0.8599,-0.0289 1.67569,-0.0634 3.37067,-0.13781 5.04224,-0.007 -0.97428,2.41708 -1.41938,4.94302 -1.75149,7.53925 z m 4.97472,-6.65041 c -0.59807,2.02157 -1.13688,4.05694 -1.63436,6.10333 -0.79926,0.0813 -1.61919,0.37069 -2.40605,0.48369 0.22186,-2.4915 0.5898,-5.02433 1.2361,-7.43728 0.95222,0.0992 1.89756,0.26872 2.82498,0.55398 0.005,0.004 0.011,0.004 0.0179,0.004 -0.0152,0.0275 -0.0317,0.0565 -0.0455,0.0841 -0.0372,0.0786 -0.0275,0.15159 0.007,0.20809 z m -17.19792,7.97332 c -0.0455,-0.60358 -0.0841,-1.20303 -0.12402,-1.80661 2.37987,0.0813 4.70324,0.79789 7.02799,1.3684 -0.13918,1.67569 -0.27974,3.35138 -0.36793,5.02708 -2.0519,0.19844 -4.11482,0.35691 -6.16948,0.41754 -0.10198,-1.67293 -0.24391,-3.34174 -0.36656,-5.00641 z m 0.50436,8.93245 c -0.001,-0.89297 -0.0275,-1.78181 -0.0703,-2.67478 2.01883,-0.0248 4.03214,-0.12678 6.0427,-0.28112 -0.0221,0.69729 -0.0331,1.39596 -0.0262,2.09876 0,0.0813 0.0166,0.15434 0.04,0.21773 -1.79559,0.16261 -3.58566,0.39549 -5.37986,0.57877 -0.2012,0.022 -0.40377,0.0386 -0.60634,0.0606 z m 15.94528,-3.96186 c -0.0703,0.20395 -0.14607,0.40238 -0.2191,0.60358 -0.45063,0.63114 -0.92191,1.25539 -1.42627,1.84106 -0.13368,0.15158 -0.27286,0.30316 -0.41479,0.44786 0.14193,-0.68489 0.28525,-1.36564 0.42719,-2.04914 0.42857,-0.32798 0.74276,-0.8475 1.05971,-1.26366 0.58842,-0.7786 1.09278,-1.62196 1.52411,-2.50115 -0.30179,0.98117 -0.61874,1.95406 -0.95085,2.92145 z m 2.1525,-7.09414 c -0.7028,0.6587 -1.40698,1.32291 -2.10978,1.98161 -0.17225,0.16261 -0.34864,0.32109 -0.52641,0.48094 0.0496,-0.23289 0.1006,-0.46578 0.15158,-0.69866 0.34865,-0.23978 0.62701,-0.54708 0.80202,-0.94258 0.0868,-0.19431 0.0248,-0.42306 -0.19706,-0.48645 -0.0937,-0.0289 -0.18879,-0.0455 -0.28387,-0.0634 0.0152,-0.0703 0.0317,-0.13781 0.0469,-0.20809 0.0345,0.0427 0.0854,0.0703 0.14745,0.0593 0.63114,-0.0703 1.36564,-0.76481 1.81074,-1.20302 0.23703,-0.23289 0.4644,-0.48232 0.66697,-0.75104 -0.16949,0.61047 -0.33899,1.22095 -0.50849,1.83142 z m -35.798682,1.21681 c -0.10473,-0.47681 -0.21911,-0.95223 -0.339,-1.42214 0.10474,0.37483 0.21084,0.74827 0.31833,1.12172 0.15985,0.55397 0.32522,1.10794 0.49196,1.66191 -0.10335,-0.20394 -0.20946,-0.40927 -0.31143,-0.61322 -0.0537,-0.25081 -0.10474,-0.50161 -0.15986,-0.74827 z m 0.45889,4.15616 c -0.20808,-0.75517 -0.41204,-1.51033 -0.60909,-2.26825 0.11713,0.23564 0.23426,0.47266 0.35415,0.70831 0.0868,0.51814 0.17226,1.03766 0.25494,1.55994 z m -7.47586,-21.435389 c 0.21911,0.44787 0.43546,0.89297 0.64492,1.3367 0.48232,1.03077 0.96325,2.06017 1.42903,3.0937 0.24391,1.42627 0.54019,2.83324 0.88608,4.230569 -1.17271,-2.808439 -2.30546,-5.630659 -3.46715,-8.417059 0.17501,-0.0744 0.34451,-0.15571 0.50712,-0.24391 z m -5.23241,-0.49058 c -0.36931,-0.92742 -0.88195,-1.76664 -1.14239,-2.7547 -0.26596,-1.00872 -0.32246,-2.10288 -0.26872,-3.15019 1.25401,-0.0565 2.50803,-0.11714 3.7648,-0.14194 -0.16261,0.91364 -0.20533,1.84244 -0.0524,2.76297 0.13918,0.84335 0.226,2.08497 1.11346,2.43361 0.16123,0.0634 0.32935,-0.0703 0.37758,-0.21497 0.20946,-0.64492 -0.22324,-1.17133 -0.42581,-1.7887 -0.13643,-0.41203 -0.22876,-0.83922 -0.2825,-1.2733 0.2701,0.67799 0.56775,1.34359 0.87781,2.00366 0.001,0.0813 0.005,0.16261 0.007,0.24392 0.004,0.41892 0.22324,0.69866 0.51401,0.84336 0.011,0.0207 0.0221,0.0455 0.0331,0.0661 -0.627,0.20809 -1.25264,0.4203 -1.90031,0.57189 -0.85714,0.20395 -1.73358,0.32384 -2.61552,0.39825 z m -2.3909,0.12402 c -3.03306,0.0841 -6.07714,-0.11988 -9.10745,-0.23702 -0.13367,-1.96094 -0.48645,-3.88744 -0.87643,-5.81394 0.41892,0.0992 0.84749,0.1695 1.28295,0.21911 -0.29214,0.2756 -0.64079,0.46302 -0.85163,0.87918 -0.0124,0.0207 0.0221,0.0524 0.04,0.0276 0.29627,-0.37759 0.67661,-0.51539 1.02526,-0.72623 -0.04,0.46164 0.0165,0.93431 0.0799,1.40697 0.12954,0.96739 0.339,2.27928 0.8599,3.10059 0.10473,0.16674 0.4327,0.17639 0.46577,-0.0593 0.10611,-0.77308 -0.21359,-1.49655 -0.41892,-2.23656 -0.21635,-0.79099 -0.22737,-1.54202 -0.27561,-2.31786 0.77722,0.0386 1.56683,0.0248 2.35232,-0.007 -0.0207,0.8847 -0.0207,1.76664 0.0551,2.64859 0.073,0.84336 0.18741,1.49655 0.87505,2.02158 0.16123,0.12402 0.32109,-0.0813 0.29904,-0.23288 -0.21911,-1.49931 -0.45476,-2.96279 -0.58705,-4.46623 0.54571,-0.0248 1.08727,-0.0524 1.61644,-0.073 -0.12402,1.87275 -0.12678,3.63664 0.5333,5.45289 0.20257,0.55397 1.0983,0.3073 0.88608,-0.24667 -0.63666,-1.65778 -0.79789,-3.45749 -0.93293,-5.22414 0.0413,0 0.0827,-0.004 0.12264,-0.004 0.99081,-0.0248 1.97887,-0.0661 2.96692,-0.113 -0.32522,1.92236 -0.21911,4.44555 1.11897,5.93796 -0.50988,0.0275 -1.02113,0.0496 -1.52963,0.0634 z m 12.74272,10.897529 c 0.35691,1.06798 0.67524,2.15112 0.97841,3.23426 -0.3266,-1.07212 -0.69729,-2.13045 -1.11346,-3.17776 0.0469,-0.011 0.0923,-0.0289 0.13505,-0.0565 z m -4.15065,-11.239279 c 0.0565,-0.0565 0.11162,-0.11713 0.16399,-0.17639 0.52916,0.9977 1.05282,1.9954 1.51998,3.00826 -0.5774,-0.93845 -1.15205,-1.87689 -1.68397,-2.83187 z m 4.48276,15.104679 c -1.13688,-3.22323 -2.52043,-6.37067 -3.26457,-9.715169 0.81304,1.82039 1.57372,3.661439 2.19521,5.563139 0.0992,0.30041 0.3638,0.40238 0.59669,0.34589 0.79789,2.08497 1.29674,4.30361 1.73082,6.48091 -0.42995,-0.88608 -0.84887,-1.77491 -1.25815,-2.67477 z m 40.190482,-8.787749 c -0.0496,0.1943 -0.10197,0.38861 -0.15158,0.58291 -0.004,0 -0.01,0 -0.0138,0.003 -0.9853,0.70969 -2.10702,1.426269 -2.98484,2.321999 0.1695,-0.66973 0.34865,-1.336699 0.52642,-2.000909 0.32108,-0.0317 0.6394,-0.073 0.94946,-0.14746 0.27423,-0.0634 0.43133,-0.2756 0.47818,-0.51538 0.26872,-0.0138 0.53744,-0.0317 0.80615,-0.0455 0.13092,-0.007 0.13092,-0.19844 0,-0.20533 -0.26871,-0.0138 -0.53743,-0.0317 -0.80752,-0.0455 -0.0469,-0.23978 -0.20533,-0.452 -0.47681,-0.51814 -1.47588,-0.34589 -3.11298,-0.1695 -4.62607,-0.2012 -1.64813,-0.0358 -3.29627,-0.0951 -4.9444,-0.1626 -3.26733,-0.13092 -6.53328,-0.32109 -9.79785,-0.50437 -6.56636,-0.37758 -13.16027,-0.79788 -19.726622,-0.29214 -0.46164,0.0345 -0.46026,0.68075 0,0.7152 1.69637,0.1378 3.394112,0.2577 5.093232,0.37069 -0.005,0.0386 0.0331,0.0813 0.0717,0.0496 0.0193,-0.0138 0.0386,-0.0289 0.0579,-0.0427 0.4837,0.0317 0.96463,0.0634 1.44832,0.0923 0.0372,0.0248 0.0744,0.0455 0.11025,0.0772 0.50022,0.41617 0.65318,1.14653 1.17822,1.49517 0.15021,0.10336 0.34037,-0.0317 0.34588,-0.19705 0.006,-0.2012 -0.0551,-0.40515 -0.15709,-0.61048 0.46578,0.0992 0.8599,0.33211 1.19062,0.678 0.0758,0.0813 0.14057,0.1695 0.19982,0.26045 -1.983,-0.0703 -3.9591,-0.007 -5.90214,0.2825 -0.14745,0.0248 -0.10335,0.24666 0.0331,0.2508 2.11529,0.0661 4.21404,0.226 6.3059,0.440969 0.0427,0.10611 0.0978,0.20395 0.17639,0.29215 0.0868,0.0992 0.27147,0.0496 0.29766,-0.0772 0.0124,-0.0537 0.0124,-0.1061 0.0138,-0.1626 2.5287,0.27147 5.04913,0.6146 7.57508,0.96324 -0.13092,2.00091 -0.11438,4.00458 -0.0551,6.00825 -2.41019,0.0413 -4.91547,0.46578 -7.38078,0.6022 -0.13229,-0.80753 -0.25907,-1.61506 -0.36656,-2.42672 -0.22599,-1.69361 -0.24391,-3.401 -0.49471,-5.08634 -0.0303,-0.20533 -0.35002,-0.18741 -0.39412,0 -0.57326,2.3909 -0.33486,5.02295 -0.0289,7.55303 -1.91685,0.0138 -3.79649,-0.21911 -5.57141,-1.02388 -0.14745,-0.0662 -0.32246,0.11299 -0.18465,0.23977 1.63297,1.47864 3.76617,1.76389 5.88835,1.85622 0.0662,0.52917 0.12954,1.05144 0.18604,1.56269 0.15985,1.47864 0.339,2.95314 0.47404,4.42764 -1.60266,-0.33486 -3.17913,-0.80477 -4.71978,-1.43591 -0.0248,-0.0675 -0.0482,-0.12678 -0.0717,-0.19431 -0.57326,-1.59439 -1.06246,-3.22047 -1.55029,-4.84656 -0.861272,-2.86494 -1.639862,-5.77949 -2.917302,-8.491469 -0.19431,-0.41617 -0.40377,-0.82958 -0.6215,-1.23885 -0.62563,-2.75884 -2.06981,-5.28065 -3.54018,-7.78868 0.0634,-0.21635 -0.073,-0.42443 -0.27699,-0.4768 -0.19706,-0.339 -0.39411,-0.67386 -0.58842,-1.01285 -0.11438,-1.71704 -0.50298,-3.41478 -1.24161,-4.97748 -0.13918,-0.29214 -0.51125,-0.47542 -0.82407,-0.47267 -2.75194,0.0358 -5.5218,0.16537 -8.25996,0.44787 -2.70922,0.27836 -5.71335,0.21497 -8.33437,0.97014 -0.226,0.0675 -0.26045,0.35277 -0.10198,0.48644 0.27148,2.12494 0.50988,4.24436 0.45889,6.39272 -0.006,0.26872 0.21222,0.42719 0.452,0.452 3.43958,0.37758 6.85022,0.78686 10.31875,0.75792 1.70463,-0.0138 4.29258,0.0152 6.22459,-0.75792 1.67983,4.91408 3.41754,9.873639 5.50802,14.660949 0.3514,0.99907 0.68902,2.00091 0.9412,3.02754 0.33487,1.3684 0.67524,2.73679 1.03629,4.09829 0.14745,0.55397 0.25631,1.68672 0.82682,2.02847 0.0496,0.0289 0.1006,0.0358 0.14883,0.0317 0.11024,0.75517 0.254942,1.50344 0.519522,2.18144 0.0703,0.17639 0.35415,0.16536 0.3514,-0.0496 -0.0193,-1.30913 -0.45062,-2.67064 -0.69453,-3.95497 -0.0882,-0.46991 -0.177772,-0.93844 -0.268722,-1.40422 0.264582,0.49747 0.534682,0.99081 0.810292,1.48139 0.15434,0.58291 0.30868,1.16169 0.46164,1.74322 0.0661,0.24667 0.35829,0.22186 0.46164,0.0496 0.25356,0.39412 0.57189,0.74689 1.00873,1.03628 0.34313,0.226 0.68626,-0.0882 0.73035,-0.41892 0.13781,-1.03766 -0.23288,-1.97611 -0.62562,-2.91731 1.27468,0.95223 2.95451,1.51998 4.48138,1.85209 0.0744,1.04731 0.11575,2.09875 0.10335,3.15019 -0.97978,-0.20808 -1.9513,-0.48782 -2.90766,-0.86403 -0.2701,-0.10611 -0.45751,0.34175 -0.19706,0.46853 1.01286,0.48369 2.04225,0.86128 3.08681,1.15342 -0.0152,0.38861 -0.0386,0.77997 -0.0717,1.1672 -1.98989,-0.0524 -4.02525,-0.3762 -5.5783,-1.49104 -0.45475,-0.32797 -0.97703,0.38448 -0.58843,0.76206 1.14378,1.10381 2.56178,1.644 4.05695,1.92925 0.59669,2.09876 0.62287,4.33531 1.00872,6.47265 0.14883,0.83371 0.36519,2.19521 0.86955,3.24666 -0.36656,0.22599 -0.69867,0.52503 -0.98117,0.91363 -0.13918,0.19018 -0.10611,0.44373 0.0193,0.63804 -0.0207,0.0455 -0.04,0.0882 -0.0606,0.13091 -0.0138,-0.0289 -0.0262,-0.0565 -0.0386,-0.0854 -0.51539,-1.27606 -0.80615,-2.64583 -1.07763,-3.99355 -0.50574,-2.51493 -0.85713,-5.04362 -1.86172,-7.42901 -0.062,-0.14469 -0.29077,-0.0951 -0.24667,0.0675 0.7152,2.61414 0.78686,5.38262 1.18649,8.0574 0.20395,1.35736 0.49333,2.69819 0.94395,3.9963 0.1447,0.41617 0.30455,0.92467 0.54984,1.35186 -0.01,0.10611 -0.0152,0.21498 -0.0165,0.32108 -0.0317,2.17593 1.46485,4.14514 3.22461,5.26687 1.84795,1.17822 4.09139,1.06797 5.77122,-0.31144 1.26091,-1.03353 1.77354,-2.62103 1.5875,-4.14514 0.75792,0.12816 1.52549,0.19844 2.28203,0.32935 0.8034,1.83693 2.949,3.33623 4.68533,3.86264 3.39962,1.0294 6.65868,-2.4033 7.0528,-5.54247 0.33486,-2.6665 -1.56683,-4.68119 -3.92327,-5.41155 0.51952,-2.05328 0.82131,-4.28295 1.08451,-6.33898 0.011,-0.0854 -0.13642,-0.10611 -0.15158,-0.0221 -0.3638,2.03261 -1.21543,4.13825 -1.48553,6.21633 -0.0675,-0.0138 -0.13504,-0.0275 -0.20395,-0.0427 0.39137,-2.25723 1.10106,-4.4552 1.68259,-6.67384 0.85714,0.0179 1.71428,0 2.57004,-0.0813 0.92053,-0.0882 2.48185,-0.20808 3.01515,-1.11897 0.29627,-0.50436 -0.003,-0.87092 -0.42444,-0.99494 0.93018,-1.06522 1.35737,-3.01514 1.80799,-4.27467 0.72347,-2.02572 1.33394,-4.09278 1.90858,-6.16673 1.12999,-4.08588 1.84933,-8.26547 2.56177,-12.442299 0.0758,-0.44511 -0.57464,-0.6463 -0.68902,-0.19155"
       id="path3290" />
  </g>
</svg>
